<?xml version="1.0"?>
<svg xmlns="http://www.w3.org/2000/svg" width="500" height="420" version="1.0" id="ezcGraph"><defs/><g id="ezcGraphChart" color-rendering="optimizeQuality" shape-rendering="geometricPrecision" text-rendering="optimizeLegibility"><path d=" M 0.0000,420.0000 L 0.0000,0.0000 L 500.0000,0.0000 L 500.0000,420.0000 L 0.0000,420.0000 z " style="fill: #eeeeec; fill-opacity: 1.00; stroke: none;" id="ezcGraphPolygon_1"/><path d=" M 0.0000,42.0000 L 0.0000,0.0000 L 500.0000,0.0000 L 500.0000,42.0000 L 0.0000,42.0000 z " style="fill: #000000; fill-opacity: 0.00; stroke: none;" id="ezcGraphPolygon_2"/><path d="M 262.23,233.57 L 374.73,233.57 A 112.50,112.50 0 0,1 365.22,278.86 z" style="fill: #3465a4; fill-opacity: 1.00; stroke: none; cursor: pointer;" id="ezcGraphCircleSector_4" onclick="top.location = 'https://bsd-hardware.info/?view=computers&amp;f=snd_model&amp;v=Intel+Sunrise+Point-LP+HD+Audio&amp;r=ghostbsd-20.04.02'"/><path d="M 264.61,234.07 L 374.23,234.07 A 112.00,112.00 0 0,1 364.96,278.20 z" style="fill: none; stroke: #1a3352; stroke-width: 1; stroke-opacity: 1.00; stroke-linecap: round; stroke-linejoin: round;" id="ezcGraphCircleSector_5"/><path d="M 250.00,231.00 L 352.98,276.28 A 112.50,112.50 0 0,1 328.86,311.23 z" style="fill: #4e9a06; fill-opacity: 1.00; stroke: none; cursor: pointer;" id="ezcGraphCircleSector_6" onclick="top.location = 'https://bsd-hardware.info/?view=computers&amp;f=snd_model&amp;v=Intel+7+Series%2FC216+Chipset+Family+High+Definition+Audio+Controller&amp;r=ghostbsd-20.04.02'"/><path d="M 252.18,232.50 L 352.32,276.54 A 112.00,112.00 0 0,1 328.87,310.53 z" style="fill: none; stroke: #274d03; stroke-width: 1; stroke-opacity: 1.00; stroke-linecap: round; stroke-linejoin: round;" id="ezcGraphCircleSector_7"/><path d="M 250.00,231.00 L 328.86,311.23 A 112.50,112.50 0 0,1 293.50,334.75 z" style="fill: #cc0000; fill-opacity: 1.00; stroke: none; cursor: pointer;" id="ezcGraphCircleSector_8" onclick="top.location = 'https://bsd-hardware.info/?view=computers&amp;f=snd_model&amp;v=Intel+6+Series%2FC200+Series+Chipset+Family+High+Definition+Audio+Controller&amp;r=ghostbsd-20.04.02'"/><path d="M 251.47,233.21 L 328.15,311.23 A 112.00,112.00 0 0,1 293.77,334.10 z" style="fill: none; stroke: #660000; stroke-width: 1; stroke-opacity: 1.00; stroke-linecap: round; stroke-linejoin: round;" id="ezcGraphCircleSector_9"/><path d="M 250.00,231.00 L 293.50,334.75 A 112.50,112.50 0 0,1 259.70,343.08 z" style="fill: #edd400; fill-opacity: 1.00; stroke: none; cursor: pointer;" id="ezcGraphCircleSector_10" onclick="top.location = 'https://bsd-hardware.info/?view=computers&amp;f=snd_model&amp;v=Intel+Haswell-ULT+HD+Audio+Controller&amp;r=ghostbsd-20.04.02'"/><path d="M 250.77,234.14 L 292.85,334.48 A 112.00,112.00 0 0,1 260.15,342.54 z" style="fill: none; stroke: #776a00; stroke-width: 1; stroke-opacity: 1.00; stroke-linecap: round; stroke-linejoin: round;" id="ezcGraphCircleSector_11"/><path d="M 250.00,231.00 L 259.70,343.08 A 112.50,112.50 0 0,1 224.97,340.68 z" style="fill: #75505b; fill-opacity: 1.00; stroke: none; cursor: pointer;" id="ezcGraphCircleSector_12" onclick="top.location = 'https://bsd-hardware.info/?view=computers&amp;f=snd_model&amp;v=Intel+8+Series+HD+Audio+Controller&amp;r=ghostbsd-20.04.02'"/><path d="M 249.78,234.22 L 259.16,342.63 A 112.00,112.00 0 0,1 225.57,340.30 z" style="fill: none; stroke: #3b282e; stroke-width: 1; stroke-opacity: 1.00; stroke-linecap: round; stroke-linejoin: round;" id="ezcGraphCircleSector_13"/><path d="M 250.00,231.00 L 224.97,340.68 A 112.50,112.50 0 1,1 362.50,231.00 z" style="fill: #f57900; fill-opacity: 1.00; stroke: none;" id="ezcGraphCircleSector_14"/><path d="M 249.60,230.50 L 224.59,340.08 A 112.00,112.00 0 1,1 362.00,230.50 z" style="fill: none; stroke: #7b3d00; stroke-width: 1; stroke-opacity: 1.00; stroke-linecap: round; stroke-linejoin: round;" id="ezcGraphCircleSector_15"/><path d=" M 198.0425,165.8474 L 166.4049,133.0000" style="fill: none; stroke: #000000; stroke-width: 1; stroke-opacity: 1.00; stroke-linecap: round; stroke-linejoin: round;" id="ezcGraphLine_16"/><ellipse cx="198.0425" cy="165.8474" rx="3.0000" ry="3.0000" style="fill: #000000; fill-opacity: 1.00; stroke: none;" id="ezcGraphCircle_17"/><ellipse cx="166.4049" cy="133.0000" rx="3.0000" ry="3.0000" style="fill: #000000; fill-opacity: 1.00; stroke: none;" id="ezcGraphCircle_18"/><path d=" M 244.2507,314.1348 L 228.2203,355.0000" style="fill: none; stroke: #000000; stroke-width: 1; stroke-opacity: 1.00; stroke-linecap: round; stroke-linejoin: round;" id="ezcGraphLine_20"/><ellipse cx="244.2507" cy="314.1348" rx="3.0000" ry="3.0000" style="fill: #000000; fill-opacity: 1.00; stroke: none;" id="ezcGraphCircle_21"/><ellipse cx="228.2203" cy="355.0000" rx="3.0000" ry="3.0000" style="fill: #000000; fill-opacity: 1.00; stroke: none;" id="ezcGraphCircle_22"/><path d=" M 343.7848,250.7091 L 377.8236,259.0000" style="fill: none; stroke: #000000; stroke-width: 1; stroke-opacity: 1.00; stroke-linecap: round; stroke-linejoin: round;" id="ezcGraphLine_24"/><ellipse cx="343.7848" cy="250.7091" rx="3.0000" ry="3.0000" style="fill: #000000; fill-opacity: 1.00; stroke: none;" id="ezcGraphCircle_25"/><ellipse cx="377.8236" cy="259.0000" rx="3.0000" ry="3.0000" style="fill: #000000; fill-opacity: 1.00; stroke: none;" id="ezcGraphCircle_26"/><path d=" M 318.5820,278.3387 L 358.8786,302.0000" style="fill: none; stroke: #000000; stroke-width: 1; stroke-opacity: 1.00; stroke-linecap: round; stroke-linejoin: round;" id="ezcGraphLine_28"/><ellipse cx="318.5820" cy="278.3387" rx="3.0000" ry="3.0000" style="fill: #000000; fill-opacity: 1.00; stroke: none;" id="ezcGraphCircle_29"/><ellipse cx="358.8786" cy="302.0000" rx="3.0000" ry="3.0000" style="fill: #000000; fill-opacity: 1.00; stroke: none;" id="ezcGraphCircle_30"/><path d=" M 296.1479,300.3889 L 318.0705,339.5000" style="fill: none; stroke: #000000; stroke-width: 1; stroke-opacity: 1.00; stroke-linecap: round; stroke-linejoin: round;" id="ezcGraphLine_32"/><ellipse cx="296.1479" cy="300.3889" rx="3.0000" ry="3.0000" style="fill: #000000; fill-opacity: 1.00; stroke: none;" id="ezcGraphCircle_33"/><ellipse cx="318.0705" cy="339.5000" rx="3.0000" ry="3.0000" style="fill: #000000; fill-opacity: 1.00; stroke: none;" id="ezcGraphCircle_34"/><path d=" M 269.9430,311.9118 L 269.9430,377.0000" style="fill: none; stroke: #000000; stroke-width: 1; stroke-opacity: 1.00; stroke-linecap: round; stroke-linejoin: round;" id="ezcGraphLine_36"/><ellipse cx="269.9430" cy="311.9118" rx="3.0000" ry="3.0000" style="fill: #000000; fill-opacity: 1.00; stroke: none;" id="ezcGraphCircle_37"/><ellipse cx="269.9430" cy="377.0000" rx="3.0000" ry="3.0000" style="fill: #000000; fill-opacity: 1.00; stroke: none;" id="ezcGraphCircle_38"/><g id="ezcGraphTextBox_3"><path d=" M 132.9000,42.0000 L 132.9000,0.5000 L 367.6000,0.5000 L 367.6000,42.0000 L 132.9000,42.0000 z " style="fill: #ffffff; fill-opacity: 0.00; stroke: none;" id="ezcGraphPolygon_40"/><text id="ezcGraphTextBox_3_text" x="133.4000" text-length="233.2000px" y="35.0000" style="font-size: 40px; font-family: 'Arial'; fill: #2e3436; fill-opacity: 1.00; stroke: none;">Sound Model</text></g><g id="ezcGraphTextBox_19"><path d=" M 56.0249,141.0000 L 56.0249,125.5000 L 161.4049,125.5000 L 161.4049,141.0000 L 56.0249,141.0000 z " style="fill: #ffffff; fill-opacity: 0.00; stroke: none;" id="ezcGraphPolygon_41"/><text id="ezcGraphTextBox_19_text" x="56.5249" text-length="103.8800px" y="137.9000" style="font-size: 14px; font-family: 'Arial'; fill: #2e3436; fill-opacity: 1.00; stroke: none;">Others (71.4%)</text></g><g id="ezcGraphTextBox_23" style=" cursor: pointer;" onclick="top.location = 'https://bsd-hardware.info/?view=computers&amp;f=snd_model&amp;v=Intel+8+Series+HD+Audio+Controller&amp;r=ghostbsd-20.04.02'"><path d=" M 51.0603,363.0000 L 51.0603,347.5000 L 223.2203,347.5000 L 223.2203,363.0000 L 51.0603,363.0000 z " style="fill: #ffffff; fill-opacity: 0.00; stroke: none;" id="ezcGraphPolygon_42"/><text id="ezcGraphTextBox_23_text" x="51.5603" text-length="170.6600px" y="359.9000" style="font-size: 14px; font-family: 'Arial'; fill: #2e3436; fill-opacity: 1.00; stroke: none;">8 Series HD A... (4.9%)</text></g><g id="ezcGraphTextBox_27" style=" cursor: pointer;" onclick="top.location = 'https://bsd-hardware.info/?view=computers&amp;f=snd_model&amp;v=Intel+Sunrise+Point-LP+HD+Audio&amp;r=ghostbsd-20.04.02'"><path d=" M 383.3236,274.0500 L 383.3236,244.4500 L 496.1236,244.4500 L 496.1236,274.0500 L 383.3236,274.0500 z " style="fill: #ffffff; fill-opacity: 0.00; stroke: none;" id="ezcGraphPolygon_43"/><text id="ezcGraphTextBox_27_text" x="383.8236" text-length="51.9400px" y="256.8500" style="font-size: 14px; font-family: 'Arial'; fill: #2e3436; fill-opacity: 1.00; stroke: none;">Sunrise</text><text id="ezcGraphTextBox_27_text" x="383.8236" text-length="111.3000px" y="272.2500" style="font-size: 14px; font-family: 'Arial'; fill: #2e3436; fill-opacity: 1.00; stroke: none;">Point... (6.6%)</text></g><g id="ezcGraphTextBox_31" style=" cursor: pointer;" onclick="top.location = 'https://bsd-hardware.info/?view=computers&amp;f=snd_model&amp;v=Intel+7+Series%2FC216+Chipset+Family+High+Definition+Audio+Controller&amp;r=ghostbsd-20.04.02'"><path d=" M 364.3786,317.0500 L 364.3786,287.4500 L 484.5986,287.4500 L 484.5986,317.0500 L 364.3786,317.0500 z " style="fill: #ffffff; fill-opacity: 0.00; stroke: none;" id="ezcGraphPolygon_44"/><text id="ezcGraphTextBox_31_text" x="364.8786" text-length="118.7200px" y="299.8500" style="font-size: 14px; font-family: 'Arial'; fill: #2e3436; fill-opacity: 1.00; stroke: none;">7 Series/C216...</text><text id="ezcGraphTextBox_31_text" x="364.8786" text-length="44.5200px" y="315.2500" style="font-size: 14px; font-family: 'Arial'; fill: #2e3436; fill-opacity: 1.00; stroke: none;">(6.0%)</text></g><g id="ezcGraphTextBox_35" style=" cursor: pointer;" onclick="top.location = 'https://bsd-hardware.info/?view=computers&amp;f=snd_model&amp;v=Intel+6+Series%2FC200+Series+Chipset+Family+High+Definition+Audio+Controller&amp;r=ghostbsd-20.04.02'"><path d=" M 323.5705,354.5500 L 323.5705,324.9500 L 443.7905,324.9500 L 443.7905,354.5500 L 323.5705,354.5500 z " style="fill: #ffffff; fill-opacity: 0.00; stroke: none;" id="ezcGraphPolygon_45"/><text id="ezcGraphTextBox_35_text" x="324.0705" text-length="118.7200px" y="337.3500" style="font-size: 14px; font-family: 'Arial'; fill: #2e3436; fill-opacity: 1.00; stroke: none;">6 Series/C200...</text><text id="ezcGraphTextBox_35_text" x="324.0705" text-length="44.5200px" y="352.7500" style="font-size: 14px; font-family: 'Arial'; fill: #2e3436; fill-opacity: 1.00; stroke: none;">(6.0%)</text></g><g id="ezcGraphTextBox_39" style=" cursor: pointer;" onclick="top.location = 'https://bsd-hardware.info/?view=computers&amp;f=snd_model&amp;v=Intel+Haswell-ULT+HD+Audio+Controller&amp;r=ghostbsd-20.04.02'"><path d=" M 275.4430,385.0000 L 275.4430,369.5000 L 447.6030,369.5000 L 447.6030,385.0000 L 275.4430,385.0000 z " style="fill: #ffffff; fill-opacity: 0.00; stroke: none;" id="ezcGraphPolygon_46"/><text id="ezcGraphTextBox_39_text" x="275.9430" text-length="170.6600px" y="381.9000" style="font-size: 14px; font-family: 'Arial'; fill: #2e3436; fill-opacity: 1.00; stroke: none;">Haswell-ULT H... (4.9%)</text></g></g></svg>
