<?xml version="1.0"?>
<svg xmlns="http://www.w3.org/2000/svg" width="500" height="420" version="1.0" id="ezcGraph"><defs/><g id="ezcGraphChart" color-rendering="optimizeQuality" shape-rendering="geometricPrecision" text-rendering="optimizeLegibility"><path d=" M 0.0000,420.0000 L 0.0000,0.0000 L 500.0000,0.0000 L 500.0000,420.0000 L 0.0000,420.0000 z " style="fill: #eeeeec; fill-opacity: 1.00; stroke: none;" id="ezcGraphPolygon_1"/><path d=" M 0.0000,42.0000 L 0.0000,0.0000 L 500.0000,0.0000 L 500.0000,42.0000 L 0.0000,42.0000 z " style="fill: #000000; fill-opacity: 0.00; stroke: none;" id="ezcGraphPolygon_2"/><path d="M 261.71,235.38 L 374.21,235.38 A 112.50,112.50 0 0,1 346.65,309.15 z" style="fill: #3465a4; fill-opacity: 1.00; stroke: none; cursor: pointer;" id="ezcGraphCircleSector_4" onclick="top.location = 'https://bsd-hardware.info/?view=computers&amp;type=desktop&amp;f=snd_model&amp;v=Intel+Alder+Lake-N+PCH+High+Definition+Audio+Controller&amp;c=Sweden'"/><path d="M 263.05,235.88 L 373.71,235.88 A 112.00,112.00 0 0,1 346.60,308.44 z" style="fill: none; stroke: #1a3352; stroke-width: 1; stroke-opacity: 1.00; stroke-linecap: round; stroke-linejoin: round;" id="ezcGraphCircleSector_5"/><path d="M 250.00,231.00 L 334.94,304.77 A 112.50,112.50 0 0,1 290.72,335.87 z" style="fill: #4e9a06; fill-opacity: 1.00; stroke: none; cursor: pointer;" id="ezcGraphCircleSector_6" onclick="top.location = 'https://bsd-hardware.info/?view=computers&amp;type=desktop&amp;f=snd_model&amp;v=Intel+100+Series%2FC230+Series+Chipset+Family+HD+Audio+Controller&amp;c=Sweden'"/><path d="M 251.20,232.70 L 334.23,304.82 A 112.00,112.00 0 0,1 291.00,335.23 z" style="fill: none; stroke: #274d03; stroke-width: 1; stroke-opacity: 1.00; stroke-linecap: round; stroke-linejoin: round;" id="ezcGraphCircleSector_7"/><path d="M 250.00,231.00 L 290.72,335.87 A 112.50,112.50 0 0,1 245.69,343.42 z" style="fill: #cc0000; fill-opacity: 1.00; stroke: none; cursor: pointer;" id="ezcGraphCircleSector_8" onclick="top.location = 'https://bsd-hardware.info/?view=computers&amp;type=desktop&amp;f=snd_model&amp;v=Intel+Xeon+E3-1200+v3%2F4th+Gen+Core+Processor+HD+Audio+Controller&amp;c=Sweden'"/><path d="M 250.41,233.43 L 290.07,335.59 A 112.00,112.00 0 0,1 246.21,342.94 z" style="fill: none; stroke: #660000; stroke-width: 1; stroke-opacity: 1.00; stroke-linecap: round; stroke-linejoin: round;" id="ezcGraphCircleSector_9"/><path d="M 250.00,231.00 L 245.69,343.42 A 112.50,112.50 0 0,1 203.98,333.66 z" style="fill: #edd400; fill-opacity: 1.00; stroke: none; cursor: pointer;" id="ezcGraphCircleSector_10" onclick="top.location = 'https://bsd-hardware.info/?view=computers&amp;type=desktop&amp;f=snd_model&amp;v=Intel+8+Series%2FC220+Series+Chipset+High+Definition+Audio+Controller&amp;c=Sweden'"/><path d="M 249.40,233.56 L 245.21,342.90 A 112.00,112.00 0 0,1 204.64,333.40 z" style="fill: none; stroke: #776a00; stroke-width: 1; stroke-opacity: 1.00; stroke-linecap: round; stroke-linejoin: round;" id="ezcGraphCircleSector_11"/><path d="M 250.00,231.00 L 203.98,333.66 A 112.50,112.50 0 0,1 173.03,313.05 z" style="fill: #75505b; fill-opacity: 1.00; stroke: none; cursor: pointer;" id="ezcGraphCircleSector_12" onclick="top.location = 'https://bsd-hardware.info/?view=computers&amp;type=desktop&amp;f=snd_model&amp;v=Intel+Jasper+Lake+HD+Audio&amp;c=Sweden'"/><path d="M 248.32,233.52 L 203.73,333.00 A 112.00,112.00 0 0,1 173.74,313.03 z" style="fill: none; stroke: #3b282e; stroke-width: 1; stroke-opacity: 1.00; stroke-linecap: round; stroke-linejoin: round;" id="ezcGraphCircleSector_13"/><path d="M 250.00,231.00 L 173.03,313.05 A 112.50,112.50 0 1,1 362.50,231.00 z" style="fill: #f57900; fill-opacity: 1.00; stroke: none;" id="ezcGraphCircleSector_14"/><path d="M 249.78,230.50 L 173.01,312.34 A 112.00,112.00 0 1,1 362.00,230.50 z" style="fill: none; stroke: #7b3d00; stroke-width: 1; stroke-opacity: 1.00; stroke-linecap: round; stroke-linejoin: round;" id="ezcGraphCircleSector_15"/><path d=" M 216.8848,154.5289 L 195.0102,116.0000" style="fill: none; stroke: #000000; stroke-width: 1; stroke-opacity: 1.00; stroke-linecap: round; stroke-linejoin: round;" id="ezcGraphLine_16"/><ellipse cx="216.8848" cy="154.5289" rx="3.0000" ry="3.0000" style="fill: #000000; fill-opacity: 1.00; stroke: none;" id="ezcGraphCircle_17"/><ellipse cx="195.0102" cy="116.0000" rx="3.0000" ry="3.0000" style="fill: #000000; fill-opacity: 1.00; stroke: none;" id="ezcGraphCircle_18"/><path d=" M 203.8131,300.3630 L 174.6530,335.0000" style="fill: none; stroke: #000000; stroke-width: 1; stroke-opacity: 1.00; stroke-linecap: round; stroke-linejoin: round;" id="ezcGraphLine_20"/><ellipse cx="203.8131" cy="300.3630" rx="3.0000" ry="3.0000" style="fill: #000000; fill-opacity: 1.00; stroke: none;" id="ezcGraphCircle_21"/><ellipse cx="174.6530" cy="335.0000" rx="3.0000" ry="3.0000" style="fill: #000000; fill-opacity: 1.00; stroke: none;" id="ezcGraphCircle_22"/><path d=" M 231.0122,312.1413 L 231.0122,372.8000" style="fill: none; stroke: #000000; stroke-width: 1; stroke-opacity: 1.00; stroke-linecap: round; stroke-linejoin: round;" id="ezcGraphLine_24"/><ellipse cx="231.0122" cy="312.1413" rx="3.0000" ry="3.0000" style="fill: #000000; fill-opacity: 1.00; stroke: none;" id="ezcGraphCircle_25"/><ellipse cx="231.0122" cy="372.8000" rx="3.0000" ry="3.0000" style="fill: #000000; fill-opacity: 1.00; stroke: none;" id="ezcGraphCircle_26"/><path d=" M 339.7716,264.5424 L 371.4166,279.0000" style="fill: none; stroke: #000000; stroke-width: 1; stroke-opacity: 1.00; stroke-linecap: round; stroke-linejoin: round;" id="ezcGraphLine_28"/><ellipse cx="339.7716" cy="264.5424" rx="3.0000" ry="3.0000" style="fill: #000000; fill-opacity: 1.00; stroke: none;" id="ezcGraphCircle_29"/><ellipse cx="371.4166" cy="279.0000" rx="3.0000" ry="3.0000" style="fill: #000000; fill-opacity: 1.00; stroke: none;" id="ezcGraphCircle_30"/><path d=" M 297.9432,299.1608 L 328.2565,333.0000" style="fill: none; stroke: #000000; stroke-width: 1; stroke-opacity: 1.00; stroke-linecap: round; stroke-linejoin: round;" id="ezcGraphLine_32"/><ellipse cx="297.9432" cy="299.1608" rx="3.0000" ry="3.0000" style="fill: #000000; fill-opacity: 1.00; stroke: none;" id="ezcGraphCircle_33"/><ellipse cx="328.2565" cy="333.0000" rx="3.0000" ry="3.0000" style="fill: #000000; fill-opacity: 1.00; stroke: none;" id="ezcGraphCircle_34"/><path d=" M 263.7715,313.1875 L 263.7715,370.8000" style="fill: none; stroke: #000000; stroke-width: 1; stroke-opacity: 1.00; stroke-linecap: round; stroke-linejoin: round;" id="ezcGraphLine_36"/><ellipse cx="263.7715" cy="313.1875" rx="3.0000" ry="3.0000" style="fill: #000000; fill-opacity: 1.00; stroke: none;" id="ezcGraphCircle_37"/><ellipse cx="263.7715" cy="370.8000" rx="3.0000" ry="3.0000" style="fill: #000000; fill-opacity: 1.00; stroke: none;" id="ezcGraphCircle_38"/><g id="ezcGraphTextBox_3"><path d=" M 132.9000,42.0000 L 132.9000,0.5000 L 367.6000,0.5000 L 367.6000,42.0000 L 132.9000,42.0000 z " style="fill: #ffffff; fill-opacity: 0.00; stroke: none;" id="ezcGraphPolygon_40"/><text id="ezcGraphTextBox_3_text" x="133.4000" text-length="233.2000px" y="35.0000" style="font-size: 40px; font-family: 'Arial'; fill: #2e3436; fill-opacity: 1.00; stroke: none;">Sound Model</text></g><g id="ezcGraphTextBox_19"><path d=" M 56.4342,125.9000 L 56.4342,106.6000 L 190.0102,106.6000 L 190.0102,125.9000 L 56.4342,125.9000 z " style="fill: #ffffff; fill-opacity: 0.00; stroke: none;" id="ezcGraphPolygon_41"/><text id="ezcGraphTextBox_19_text" x="56.9342" text-length="132.0760px" y="122.2300" style="font-size: 17px; font-family: 'Arial'; fill: #2e3436; fill-opacity: 1.00; stroke: none;">Others (63.0%)</text></g><g id="ezcGraphTextBox_23" style=" cursor: pointer;" onclick="top.location = 'https://bsd-hardware.info/?view=computers&amp;type=desktop&amp;f=snd_model&amp;v=Intel+Jasper+Lake+HD+Audio&amp;c=Sweden'"><path d=" M 17.2090,353.8500 L 17.2090,316.6500 L 169.6530,316.6500 L 169.6530,353.8500 L 17.2090,353.8500 z " style="fill: #ffffff; fill-opacity: 0.00; stroke: none;" id="ezcGraphPolygon_42"/><text id="ezcGraphTextBox_23_text" x="17.7090" text-length="150.9440px" y="332.2800" style="font-size: 17px; font-family: 'Arial'; fill: #2e3436; fill-opacity: 1.00; stroke: none;">Jasper Lake H...</text><text id="ezcGraphTextBox_23_text" x="112.0490" text-length="56.6040px" y="351.8600" style="font-size: 17px; font-family: 'Arial'; fill: #2e3436; fill-opacity: 1.00; stroke: none;">(5.3%)</text></g><g id="ezcGraphTextBox_27" style=" cursor: pointer;" onclick="top.location = 'https://bsd-hardware.info/?view=computers&amp;type=desktop&amp;f=snd_model&amp;v=Intel+8+Series%2FC220+Series+Chipset+High+Definition+Audio+Controller&amp;c=Sweden'"><path d=" M 7.5302,382.7000 L 7.5302,363.4000 L 226.0122,363.4000 L 226.0122,382.7000 L 7.5302,382.7000 z " style="fill: #ffffff; fill-opacity: 0.00; stroke: none;" id="ezcGraphPolygon_43"/><text id="ezcGraphTextBox_27_text" x="8.0302" text-length="216.9820px" y="379.0300" style="font-size: 17px; font-family: 'Arial'; fill: #2e3436; fill-opacity: 1.00; stroke: none;">8 Series/C220... (6.1%)</text></g><g id="ezcGraphTextBox_31" style=" cursor: pointer;" onclick="top.location = 'https://bsd-hardware.info/?view=computers&amp;type=desktop&amp;f=snd_model&amp;v=Intel+Alder+Lake-N+PCH+High+Definition+Audio+Controller&amp;c=Sweden'"><path d=" M 376.9166,297.8500 L 376.9166,260.6500 L 491.6246,260.6500 L 491.6246,297.8500 L 376.9166,297.8500 z " style="fill: #ffffff; fill-opacity: 0.00; stroke: none;" id="ezcGraphPolygon_44"/><text id="ezcGraphTextBox_31_text" x="377.4166" text-length="113.2080px" y="276.2800" style="font-size: 17px; font-family: 'Arial'; fill: #2e3436; fill-opacity: 1.00; stroke: none;">Alder Lake-N</text><text id="ezcGraphTextBox_31_text" x="377.4166" text-length="103.7740px" y="295.8600" style="font-size: 17px; font-family: 'Arial'; fill: #2e3436; fill-opacity: 1.00; stroke: none;">... (11.4%)</text></g><g id="ezcGraphTextBox_35" style=" cursor: pointer;" onclick="top.location = 'https://bsd-hardware.info/?view=computers&amp;type=desktop&amp;f=snd_model&amp;v=Intel+100+Series%2FC230+Series+Chipset+Family+HD+Audio+Controller&amp;c=Sweden'"><path d=" M 333.7565,351.8500 L 333.7565,314.6500 L 486.2005,314.6500 L 486.2005,351.8500 L 333.7565,351.8500 z " style="fill: #ffffff; fill-opacity: 0.00; stroke: none;" id="ezcGraphPolygon_45"/><text id="ezcGraphTextBox_35_text" x="334.2565" text-length="150.9440px" y="330.2800" style="font-size: 17px; font-family: 'Arial'; fill: #2e3436; fill-opacity: 1.00; stroke: none;">100 Series/C2...</text><text id="ezcGraphTextBox_35_text" x="334.2565" text-length="56.6040px" y="349.8600" style="font-size: 17px; font-family: 'Arial'; fill: #2e3436; fill-opacity: 1.00; stroke: none;">(7.7%)</text></g><g id="ezcGraphTextBox_39" style=" cursor: pointer;" onclick="top.location = 'https://bsd-hardware.info/?view=computers&amp;type=desktop&amp;f=snd_model&amp;v=Intel+Xeon+E3-1200+v3%2F4th+Gen+Core+Processor+HD+Audio+Controller&amp;c=Sweden'"><path d=" M 269.2715,380.7000 L 269.2715,361.4000 L 487.7535,361.4000 L 487.7535,380.7000 L 269.2715,380.7000 z " style="fill: #ffffff; fill-opacity: 0.00; stroke: none;" id="ezcGraphPolygon_46"/><text id="ezcGraphTextBox_39_text" x="269.7715" text-length="216.9820px" y="377.0300" style="font-size: 17px; font-family: 'Arial'; fill: #2e3436; fill-opacity: 1.00; stroke: none;">Xeon E3-1200 ... (6.5%)</text></g></g></svg>
