<?xml version="1.0"?>
<svg xmlns="http://www.w3.org/2000/svg" width="500" height="420" version="1.0" id="ezcGraph"><defs/><g id="ezcGraphChart" color-rendering="optimizeQuality" shape-rendering="geometricPrecision" text-rendering="optimizeLegibility"><path d=" M 0.0000,420.0000 L 0.0000,0.0000 L 500.0000,0.0000 L 500.0000,420.0000 L 0.0000,420.0000 z " style="fill: #eeeeec; fill-opacity: 1.00; stroke: none;" id="ezcGraphPolygon_1"/><path d=" M 0.0000,42.0000 L 0.0000,0.0000 L 500.0000,0.0000 L 500.0000,42.0000 L 0.0000,42.0000 z " style="fill: #000000; fill-opacity: 0.00; stroke: none;" id="ezcGraphPolygon_2"/><path d="M 261.60,235.66 L 374.10,235.66 A 112.50,112.50 0 0,1 342.79,313.54 z" style="fill: #3465a4; fill-opacity: 1.00; stroke: none; cursor: pointer;" id="ezcGraphCircleSector_4" onclick="top.location = 'https://bsd-hardware.info/?view=computers&amp;type=notebook&amp;f=net_model&amp;v=Realtek+Semiconductor+RTL8111%2F8168%2F8411+PCI+Express+Gigabit+Ethernet+Controller&amp;c=Germany'"/><path d="M 262.84,236.16 L 373.60,236.16 A 112.00,112.00 0 0,1 342.77,312.83 z" style="fill: none; stroke: #1a3352; stroke-width: 1; stroke-opacity: 1.00; stroke-linecap: round; stroke-linejoin: round;" id="ezcGraphCircleSector_5"/><path d="M 250.00,231.00 L 331.19,308.87 A 112.50,112.50 0 0,1 301.21,331.17 z" style="fill: #4e9a06; fill-opacity: 1.00; stroke: none; cursor: pointer;" id="ezcGraphCircleSector_6" onclick="top.location = 'https://bsd-hardware.info/?view=computers&amp;type=notebook&amp;f=net_model&amp;v=Intel+82579LM+Gigabit+Network+Connection+%28Lewisville%29&amp;c=Germany'"/><path d="M 251.80,233.42 L 330.48,308.89 A 112.00,112.00 0 0,1 301.43,330.49 z" style="fill: none; stroke: #274d03; stroke-width: 1; stroke-opacity: 1.00; stroke-linecap: round; stroke-linejoin: round;" id="ezcGraphCircleSector_7"/><path d="M 250.00,231.00 L 301.21,331.17 A 112.50,112.50 0 0,1 277.86,340.00 z" style="fill: #cc0000; fill-opacity: 1.00; stroke: none; cursor: pointer;" id="ezcGraphCircleSector_8" onclick="top.location = 'https://bsd-hardware.info/?view=computers&amp;type=notebook&amp;f=net_model&amp;v=Intel+Centrino+Advanced-N+6205+%5BTaylor+Peak%5D&amp;c=Germany'"/><path d="M 251.59,235.21 L 300.54,330.95 A 112.00,112.00 0 0,1 278.22,339.39 z" style="fill: none; stroke: #660000; stroke-width: 1; stroke-opacity: 1.00; stroke-linecap: round; stroke-linejoin: round;" id="ezcGraphCircleSector_9"/><path d="M 250.00,231.00 L 277.86,340.00 A 112.50,112.50 0 0,1 257.81,343.23 z" style="fill: #edd400; fill-opacity: 1.00; stroke: none; cursor: pointer;" id="ezcGraphCircleSector_10" onclick="top.location = 'https://bsd-hardware.info/?view=computers&amp;type=notebook&amp;f=net_model&amp;v=Intel+I210+Gigabit+Network+Connection&amp;c=Germany'"/><path d="M 250.88,236.47 L 277.25,339.64 A 112.00,112.00 0 0,1 258.28,342.69 z" style="fill: none; stroke: #776a00; stroke-width: 1; stroke-opacity: 1.00; stroke-linecap: round; stroke-linejoin: round;" id="ezcGraphCircleSector_11"/><path d="M 250.00,231.00 L 257.81,343.23 A 112.50,112.50 0 0,1 239.07,342.97 z" style="fill: #75505b; fill-opacity: 1.00; stroke: none; cursor: pointer;" id="ezcGraphCircleSector_12" onclick="top.location = 'https://bsd-hardware.info/?view=computers&amp;type=notebook&amp;f=net_model&amp;v=Intel+Wireless+8265+%2F+8275&amp;c=Germany'"/><path d="M 249.92,237.00 L 257.28,342.76 A 112.00,112.00 0 0,1 239.62,342.52 z" style="fill: none; stroke: #3b282e; stroke-width: 1; stroke-opacity: 1.00; stroke-linecap: round; stroke-linejoin: round;" id="ezcGraphCircleSector_13"/><path d="M 250.00,231.00 L 239.07,342.97 A 112.50,112.50 0 1,1 362.50,231.00 z" style="fill: #f57900; fill-opacity: 1.00; stroke: none;" id="ezcGraphCircleSector_14"/><path d="M 249.55,230.50 L 238.62,342.42 A 112.00,112.00 0 1,1 362.00,230.50 z" style="fill: none; stroke: #7b3d00; stroke-width: 1; stroke-opacity: 1.00; stroke-linecap: round; stroke-linejoin: round;" id="ezcGraphCircleSector_15"/><path d=" M 194.0099,169.2784 L 160.4775,138.0000" style="fill: none; stroke: #000000; stroke-width: 1; stroke-opacity: 1.00; stroke-linecap: round; stroke-linejoin: round;" id="ezcGraphLine_16"/><ellipse cx="194.0099" cy="169.2784" rx="3.0000" ry="3.0000" style="fill: #000000; fill-opacity: 1.00; stroke: none;" id="ezcGraphCircle_17"/><ellipse cx="160.4775" cy="138.0000" rx="3.0000" ry="3.0000" style="fill: #000000; fill-opacity: 1.00; stroke: none;" id="ezcGraphCircle_18"/><path d=" M 248.8416,314.3253 L 228.2203,355.0000" style="fill: none; stroke: #000000; stroke-width: 1; stroke-opacity: 1.00; stroke-linecap: round; stroke-linejoin: round;" id="ezcGraphLine_20"/><ellipse cx="248.8416" cy="314.3253" rx="3.0000" ry="3.0000" style="fill: #000000; fill-opacity: 1.00; stroke: none;" id="ezcGraphCircle_21"/><ellipse cx="228.2203" cy="355.0000" rx="3.0000" ry="3.0000" style="fill: #000000; fill-opacity: 1.00; stroke: none;" id="ezcGraphCircle_22"/><path d=" M 338.9160,266.7488 L 370.1227,282.0000" style="fill: none; stroke: #000000; stroke-width: 1; stroke-opacity: 1.00; stroke-linecap: round; stroke-linejoin: round;" id="ezcGraphLine_24"/><ellipse cx="338.9160" cy="266.7488" rx="3.0000" ry="3.0000" style="fill: #000000; fill-opacity: 1.00; stroke: none;" id="ezcGraphCircle_25"/><ellipse cx="370.1227" cy="282.0000" rx="3.0000" ry="3.0000" style="fill: #000000; fill-opacity: 1.00; stroke: none;" id="ezcGraphCircle_26"/><path d=" M 299.7288,297.8692 L 338.6797,324.7500" style="fill: none; stroke: #000000; stroke-width: 1; stroke-opacity: 1.00; stroke-linecap: round; stroke-linejoin: round;" id="ezcGraphLine_28"/><ellipse cx="299.7288" cy="297.8692" rx="3.0000" ry="3.0000" style="fill: #000000; fill-opacity: 1.00; stroke: none;" id="ezcGraphCircle_29"/><ellipse cx="338.6797" cy="324.7500" rx="3.0000" ry="3.0000" style="fill: #000000; fill-opacity: 1.00; stroke: none;" id="ezcGraphCircle_30"/><path d=" M 279.4671,308.9496 L 279.4671,362.2500" style="fill: none; stroke: #000000; stroke-width: 1; stroke-opacity: 1.00; stroke-linecap: round; stroke-linejoin: round;" id="ezcGraphLine_32"/><ellipse cx="279.4671" cy="308.9496" rx="3.0000" ry="3.0000" style="fill: #000000; fill-opacity: 1.00; stroke: none;" id="ezcGraphCircle_33"/><ellipse cx="279.4671" cy="362.2500" rx="3.0000" ry="3.0000" style="fill: #000000; fill-opacity: 1.00; stroke: none;" id="ezcGraphCircle_34"/><path d=" M 263.2650,313.2708 L 263.2650,399.7500" style="fill: none; stroke: #000000; stroke-width: 1; stroke-opacity: 1.00; stroke-linecap: round; stroke-linejoin: round;" id="ezcGraphLine_36"/><ellipse cx="263.2650" cy="313.2708" rx="3.0000" ry="3.0000" style="fill: #000000; fill-opacity: 1.00; stroke: none;" id="ezcGraphCircle_37"/><ellipse cx="263.2650" cy="399.7500" rx="3.0000" ry="3.0000" style="fill: #000000; fill-opacity: 1.00; stroke: none;" id="ezcGraphCircle_38"/><g id="ezcGraphTextBox_3"><path d=" M 37.5000,42.0000 L 37.5000,0.5000 L 463.0000,0.5000 L 463.0000,42.0000 L 37.5000,42.0000 z " style="fill: #ffffff; fill-opacity: 0.00; stroke: none;" id="ezcGraphPolygon_40"/><text id="ezcGraphTextBox_3_text" x="38.0000" text-length="424.0000px" y="35.0000" style="font-size: 40px; font-family: 'Arial'; fill: #2e3436; fill-opacity: 1.00; stroke: none;">Net Controller Model</text></g><g id="ezcGraphTextBox_19"><path d=" M 35.2575,147.0000 L 35.2575,129.5000 L 155.4775,129.5000 L 155.4775,147.0000 L 35.2575,147.0000 z " style="fill: #ffffff; fill-opacity: 0.00; stroke: none;" id="ezcGraphPolygon_41"/><text id="ezcGraphTextBox_19_text" x="35.7575" text-length="118.7200px" y="143.6000" style="font-size: 16px; font-family: 'Arial'; fill: #2e3436; fill-opacity: 1.00; stroke: none;">Others (73.5%)</text></g><g id="ezcGraphTextBox_23" style=" cursor: pointer;" onclick="top.location = 'https://bsd-hardware.info/?view=computers&amp;type=notebook&amp;f=net_model&amp;v=Intel+Wireless+8265+%2F+8275&amp;c=Germany'"><path d=" M 43.6403,364.0000 L 43.6403,346.5000 L 223.2203,346.5000 L 223.2203,364.0000 L 43.6403,364.0000 z " style="fill: #ffffff; fill-opacity: 0.00; stroke: none;" id="ezcGraphPolygon_42"/><text id="ezcGraphTextBox_23_text" x="44.1403" text-length="178.0800px" y="360.6000" style="font-size: 16px; font-family: 'Arial'; fill: #2e3436; fill-opacity: 1.00; stroke: none;">Wireless 82... (2.7%)</text></g><g id="ezcGraphTextBox_27" style=" cursor: pointer;" onclick="top.location = 'https://bsd-hardware.info/?view=computers&amp;type=notebook&amp;f=net_model&amp;v=Realtek+Semiconductor+RTL8111%2F8168%2F8411+PCI+Express+Gigabit+Ethernet+Controller&amp;c=Germany'"><path d=" M 375.6227,299.0500 L 375.6227,265.4500 L 495.8427,265.4500 L 495.8427,299.0500 L 375.6227,299.0500 z " style="fill: #ffffff; fill-opacity: 0.00; stroke: none;" id="ezcGraphPolygon_43"/><text id="ezcGraphTextBox_27_text" x="376.1227" text-length="118.7200px" y="279.5500" style="font-size: 16px; font-family: 'Arial'; fill: #2e3436; fill-opacity: 1.00; stroke: none;">RTL8111/816...</text><text id="ezcGraphTextBox_27_text" x="376.1227" text-length="59.3600px" y="297.1500" style="font-size: 16px; font-family: 'Arial'; fill: #2e3436; fill-opacity: 1.00; stroke: none;">(12.2%)</text></g><g id="ezcGraphTextBox_31" style=" cursor: pointer;" onclick="top.location = 'https://bsd-hardware.info/?view=computers&amp;type=notebook&amp;f=net_model&amp;v=Intel+82579LM+Gigabit+Network+Connection+%28Lewisville%29&amp;c=Germany'"><path d=" M 344.1797,341.8000 L 344.1797,308.2000 L 464.3997,308.2000 L 464.3997,341.8000 L 344.1797,341.8000 z " style="fill: #ffffff; fill-opacity: 0.00; stroke: none;" id="ezcGraphPolygon_44"/><text id="ezcGraphTextBox_31_text" x="344.6797" text-length="118.7200px" y="322.3000" style="font-size: 16px; font-family: 'Arial'; fill: #2e3436; fill-opacity: 1.00; stroke: none;">82579LM Gig...</text><text id="ezcGraphTextBox_31_text" x="344.6797" text-length="50.8800px" y="339.9000" style="font-size: 16px; font-family: 'Arial'; fill: #2e3436; fill-opacity: 1.00; stroke: none;">(5.3%)</text></g><g id="ezcGraphTextBox_35" style=" cursor: pointer;" onclick="top.location = 'https://bsd-hardware.info/?view=computers&amp;type=notebook&amp;f=net_model&amp;v=Intel+Centrino+Advanced-N+6205+%5BTaylor+Peak%5D&amp;c=Germany'"><path d=" M 284.9671,371.2500 L 284.9671,353.7500 L 464.5471,353.7500 L 464.5471,371.2500 L 284.9671,371.2500 z " style="fill: #ffffff; fill-opacity: 0.00; stroke: none;" id="ezcGraphPolygon_45"/><text id="ezcGraphTextBox_35_text" x="285.4671" text-length="178.0800px" y="367.8500" style="font-size: 16px; font-family: 'Arial'; fill: #2e3436; fill-opacity: 1.00; stroke: none;">Centrino Ad... (3.5%)</text></g><g id="ezcGraphTextBox_39" style=" cursor: pointer;" onclick="top.location = 'https://bsd-hardware.info/?view=computers&amp;type=notebook&amp;f=net_model&amp;v=Intel+I210+Gigabit+Network+Connection&amp;c=Germany'"><path d=" M 268.7650,408.7500 L 268.7650,391.2500 L 448.3450,391.2500 L 448.3450,408.7500 L 268.7650,408.7500 z " style="fill: #ffffff; fill-opacity: 0.00; stroke: none;" id="ezcGraphPolygon_46"/><text id="ezcGraphTextBox_39_text" x="269.2650" text-length="178.0800px" y="405.3500" style="font-size: 16px; font-family: 'Arial'; fill: #2e3436; fill-opacity: 1.00; stroke: none;">I210 Gigabi... (2.9%)</text></g></g></svg>
