<?xml version="1.0"?>
<svg xmlns="http://www.w3.org/2000/svg" width="500" height="420" version="1.0" id="ezcGraph"><defs/><g id="ezcGraphChart" color-rendering="optimizeQuality" shape-rendering="geometricPrecision" text-rendering="optimizeLegibility"><path d=" M 0.0000,420.0000 L 0.0000,0.0000 L 500.0000,0.0000 L 500.0000,420.0000 L 0.0000,420.0000 z " style="fill: #eeeeec; fill-opacity: 1.00; stroke: none;" id="ezcGraphPolygon_1"/><path d=" M 0.0000,42.0000 L 0.0000,0.0000 L 500.0000,0.0000 L 500.0000,42.0000 L 0.0000,42.0000 z " style="fill: #000000; fill-opacity: 0.00; stroke: none;" id="ezcGraphPolygon_2"/><path d="M 262.44,232.21 L 374.94,232.21 A 112.50,112.50 0 0,1 372.82,253.95 z" style="fill: #3465a4; fill-opacity: 1.00; stroke: none; cursor: pointer;" id="ezcGraphCircleSector_4" onclick="top.location = 'https://bsd-hardware.info/?view=computers&amp;type=desktop&amp;f=memory_model&amp;v=&amp;c=UK'"/><path d="M 267.57,232.71 L 374.44,232.71 A 112.00,112.00 0 0,1 372.43,253.36 z" style="fill: none; stroke: #1a3352; stroke-width: 1; stroke-opacity: 1.00; stroke-linecap: round; stroke-linejoin: round;" id="ezcGraphCircleSector_5"/><path d="M 250.00,231.00 L 360.38,252.74 A 112.50,112.50 0 0,1 355.36,270.44 z" style="fill: #4e9a06; fill-opacity: 1.00; stroke: none; cursor: pointer;" id="ezcGraphCircleSector_6" onclick="top.location = 'https://bsd-hardware.info/?view=computers&amp;type=desktop&amp;f=memory_model&amp;v=Unknown+%28ABCD%29+RAM+123456789012345678+8GB+DIMM+DDR4+2400MT%2Fs&amp;c=UK'"/><path d="M 255.88,232.67 L 359.79,253.13 A 112.00,112.00 0 0,1 355.07,269.79 z" style="fill: none; stroke: #274d03; stroke-width: 1; stroke-opacity: 1.00; stroke-linecap: round; stroke-linejoin: round;" id="ezcGraphCircleSector_7"/><path d="M 250.00,231.00 L 355.36,270.44 A 112.50,112.50 0 0,1 351.78,278.92 z" style="fill: #cc0000; fill-opacity: 1.00; stroke: none; cursor: pointer;" id="ezcGraphCircleSector_8" onclick="top.location = 'https://bsd-hardware.info/?view=computers&amp;type=desktop&amp;f=memory_model&amp;v=Samsung+Electronics+RAM+M425R1GB4BB0-CQKOL+8GB+SODIMM+DDR5+4800MT%2Fs&amp;c=UK'"/><path d="M 261.26,235.75 L 354.72,270.73 A 112.00,112.00 0 0,1 351.54,278.26 z" style="fill: none; stroke: #660000; stroke-width: 1; stroke-opacity: 1.00; stroke-linecap: round; stroke-linejoin: round;" id="ezcGraphCircleSector_9"/><path d="M 250.00,231.00 L 351.78,278.92 A 112.50,112.50 0 0,1 348.65,285.08 z" style="fill: #edd400; fill-opacity: 1.00; stroke: none; cursor: pointer;" id="ezcGraphCircleSector_10" onclick="top.location = 'https://bsd-hardware.info/?view=computers&amp;type=desktop&amp;f=memory_model&amp;v=Crucial+RAM+CT16G48C40S5.M8A1+16GB+SODIMM+DDR5+4800MT%2Fs&amp;c=UK'"/><path d="M 264.52,238.39 L 351.12,279.16 A 112.00,112.00 0 0,1 348.45,284.40 z" style="fill: none; stroke: #776a00; stroke-width: 1; stroke-opacity: 1.00; stroke-linecap: round; stroke-linejoin: round;" id="ezcGraphCircleSector_11"/><path d="M 250.00,231.00 L 348.65,285.08 A 112.50,112.50 0 0,1 345.76,290.05 z" style="fill: #75505b; fill-opacity: 1.00; stroke: none; cursor: pointer;" id="ezcGraphCircleSector_12" onclick="top.location = 'https://bsd-hardware.info/?view=computers&amp;type=desktop&amp;f=memory_model&amp;v=Samsung+Electronics+RAM+M471A1K43CB1-CTD+8GB+SODIMM+DDR4+3200MT%2Fs&amp;c=UK'"/><path d="M 266.89,240.83 L 347.97,285.27 A 112.00,112.00 0 0,1 345.59,289.36 z" style="fill: none; stroke: #3b282e; stroke-width: 1; stroke-opacity: 1.00; stroke-linecap: round; stroke-linejoin: round;" id="ezcGraphCircleSector_13"/><path d="M 250.00,231.00 L 345.76,290.05 A 112.50,112.50 0 1,1 362.50,231.00 z" style="fill: #f57900; fill-opacity: 1.00; stroke: none;" id="ezcGraphCircleSector_14"/><path d="M 248.24,230.50 L 345.07,290.21 A 112.00,112.00 0 1,1 362.00,230.50 z" style="fill: none; stroke: #7b3d00; stroke-width: 1; stroke-opacity: 1.00; stroke-linecap: round; stroke-linejoin: round;" id="ezcGraphCircleSector_15"/><path d=" M 169.8273,208.2671 L 124.0000,196.0000" style="fill: none; stroke: #000000; stroke-width: 1; stroke-opacity: 1.00; stroke-linecap: round; stroke-linejoin: round;" id="ezcGraphLine_16"/><ellipse cx="169.8273" cy="208.2671" rx="3.0000" ry="3.0000" style="fill: #000000; fill-opacity: 1.00; stroke: none;" id="ezcGraphCircle_17"/><ellipse cx="124.0000" cy="196.0000" rx="3.0000" ry="3.0000" style="fill: #000000; fill-opacity: 1.00; stroke: none;" id="ezcGraphCircle_18"/><path d=" M 345.3808,240.3018 L 380.3222,244.0000" style="fill: none; stroke: #000000; stroke-width: 1; stroke-opacity: 1.00; stroke-linecap: round; stroke-linejoin: round;" id="ezcGraphLine_20"/><ellipse cx="345.3808" cy="240.3018" rx="3.0000" ry="3.0000" style="fill: #000000; fill-opacity: 1.00; stroke: none;" id="ezcGraphCircle_21"/><ellipse cx="380.3222" cy="244.0000" rx="3.0000" ry="3.0000" style="fill: #000000; fill-opacity: 1.00; stroke: none;" id="ezcGraphCircle_22"/><path d=" M 330.1727,253.7329 L 371.4166,279.0000" style="fill: none; stroke: #000000; stroke-width: 1; stroke-opacity: 1.00; stroke-linecap: round; stroke-linejoin: round;" id="ezcGraphLine_24"/><ellipse cx="330.1727" cy="253.7329" rx="3.0000" ry="3.0000" style="fill: #000000; fill-opacity: 1.00; stroke: none;" id="ezcGraphCircle_25"/><ellipse cx="371.4166" cy="279.0000" rx="3.0000" ry="3.0000" style="fill: #000000; fill-opacity: 1.00; stroke: none;" id="ezcGraphCircle_26"/><path d=" M 326.7844,263.3820 L 349.4666,314.0000" style="fill: none; stroke: #000000; stroke-width: 1; stroke-opacity: 1.00; stroke-linecap: round; stroke-linejoin: round;" id="ezcGraphLine_28"/><ellipse cx="326.7844" cy="263.3820" rx="3.0000" ry="3.0000" style="fill: #000000; fill-opacity: 1.00; stroke: none;" id="ezcGraphCircle_29"/><ellipse cx="349.4666" cy="314.0000" rx="3.0000" ry="3.0000" style="fill: #000000; fill-opacity: 1.00; stroke: none;" id="ezcGraphCircle_30"/><path d=" M 324.2699,268.7945 L 297.2432,349.0000" style="fill: none; stroke: #000000; stroke-width: 1; stroke-opacity: 1.00; stroke-linecap: round; stroke-linejoin: round;" id="ezcGraphLine_32"/><ellipse cx="324.2699" cy="268.7945" rx="3.0000" ry="3.0000" style="fill: #000000; fill-opacity: 1.00; stroke: none;" id="ezcGraphCircle_33"/><ellipse cx="297.2432" cy="349.0000" rx="3.0000" ry="3.0000" style="fill: #000000; fill-opacity: 1.00; stroke: none;" id="ezcGraphCircle_34"/><path d=" M 322.0262,272.9126 L 322.0262,384.0000" style="fill: none; stroke: #000000; stroke-width: 1; stroke-opacity: 1.00; stroke-linecap: round; stroke-linejoin: round;" id="ezcGraphLine_36"/><ellipse cx="322.0262" cy="272.9126" rx="3.0000" ry="3.0000" style="fill: #000000; fill-opacity: 1.00; stroke: none;" id="ezcGraphCircle_37"/><ellipse cx="322.0262" cy="384.0000" rx="3.0000" ry="3.0000" style="fill: #000000; fill-opacity: 1.00; stroke: none;" id="ezcGraphCircle_38"/><g id="ezcGraphTextBox_3"><path d=" M 122.3000,42.0000 L 122.3000,0.5000 L 378.2000,0.5000 L 378.2000,42.0000 L 122.3000,42.0000 z " style="fill: #ffffff; fill-opacity: 0.00; stroke: none;" id="ezcGraphPolygon_40"/><text id="ezcGraphTextBox_3_text" x="122.8000" text-length="254.4000px" y="35.0000" style="font-size: 40px; font-family: 'Arial'; fill: #2e3436; fill-opacity: 1.00; stroke: none;">Memory Model</text></g><g id="ezcGraphTextBox_19"><path d=" M 65.5600,211.0500 L 65.5600,181.4500 L 119.0000,181.4500 L 119.0000,211.0500 L 65.5600,211.0500 z " style="fill: #ffffff; fill-opacity: 0.00; stroke: none;" id="ezcGraphPolygon_41"/><text id="ezcGraphTextBox_19_text" x="73.4800" text-length="44.5200px" y="193.8500" style="font-size: 14px; font-family: 'Arial'; fill: #2e3436; fill-opacity: 1.00; stroke: none;">Others</text><text id="ezcGraphTextBox_19_text" x="66.0600" text-length="51.9400px" y="209.2500" style="font-size: 14px; font-family: 'Arial'; fill: #2e3436; fill-opacity: 1.00; stroke: none;">(91.2%)</text></g><g id="ezcGraphTextBox_23" style=" cursor: pointer;" onclick="top.location = 'https://bsd-hardware.info/?view=computers&amp;type=desktop&amp;f=memory_model&amp;v=&amp;c=UK'"><path d=" M 385.8222,259.0500 L 385.8222,229.4500 L 476.3622,229.4500 L 476.3622,259.0500 L 385.8222,259.0500 z " style="fill: #ffffff; fill-opacity: 0.00; stroke: none;" id="ezcGraphPolygon_42"/><text id="ezcGraphTextBox_23_text" x="386.3222" text-length="74.2000px" y="241.8500" style="font-size: 14px; font-family: 'Arial'; fill: #2e3436; fill-opacity: 1.00; stroke: none;">BM 8G 2666</text><text id="ezcGraphTextBox_23_text" x="386.3222" text-length="89.0400px" y="257.2500" style="font-size: 14px; font-family: 'Arial'; fill: #2e3436; fill-opacity: 1.00; stroke: none;">8G... (3.1%)</text></g><g id="ezcGraphTextBox_27" style=" cursor: pointer;" onclick="top.location = 'https://bsd-hardware.info/?view=computers&amp;type=desktop&amp;f=memory_model&amp;v=Unknown+%28ABCD%29+RAM+123456789012345678+8GB+DIMM+DDR4+2400MT%2Fs&amp;c=UK'"><path d=" M 376.9166,294.0500 L 376.9166,264.4500 L 497.1366,264.4500 L 497.1366,294.0500 L 376.9166,294.0500 z " style="fill: #ffffff; fill-opacity: 0.00; stroke: none;" id="ezcGraphPolygon_43"/><text id="ezcGraphTextBox_27_text" x="377.4166" text-length="118.7200px" y="276.8500" style="font-size: 14px; font-family: 'Arial'; fill: #2e3436; fill-opacity: 1.00; stroke: none;">1234567890123...</text><text id="ezcGraphTextBox_27_text" x="377.4166" text-length="44.5200px" y="292.2500" style="font-size: 14px; font-family: 'Arial'; fill: #2e3436; fill-opacity: 1.00; stroke: none;">(2.6%)</text></g><g id="ezcGraphTextBox_31" style=" cursor: pointer;" onclick="top.location = 'https://bsd-hardware.info/?view=computers&amp;type=desktop&amp;f=memory_model&amp;v=Samsung+Electronics+RAM+M425R1GB4BB0-CQKOL+8GB+SODIMM+DDR5+4800MT%2Fs&amp;c=UK'"><path d=" M 354.9666,329.0500 L 354.9666,299.4500 L 475.1866,299.4500 L 475.1866,329.0500 L 354.9666,329.0500 z " style="fill: #ffffff; fill-opacity: 0.00; stroke: none;" id="ezcGraphPolygon_44"/><text id="ezcGraphTextBox_31_text" x="355.4666" text-length="118.7200px" y="311.8500" style="font-size: 14px; font-family: 'Arial'; fill: #2e3436; fill-opacity: 1.00; stroke: none;">M425R1GB4BB0-...</text><text id="ezcGraphTextBox_31_text" x="355.4666" text-length="44.5200px" y="327.2500" style="font-size: 14px; font-family: 'Arial'; fill: #2e3436; fill-opacity: 1.00; stroke: none;">(1.3%)</text></g><g id="ezcGraphTextBox_35" style=" cursor: pointer;" onclick="top.location = 'https://bsd-hardware.info/?view=computers&amp;type=desktop&amp;f=memory_model&amp;v=Crucial+RAM+CT16G48C40S5.M8A1+16GB+SODIMM+DDR5+4800MT%2Fs&amp;c=UK'"><path d=" M 302.7432,357.0000 L 302.7432,341.5000 L 474.9032,341.5000 L 474.9032,357.0000 L 302.7432,357.0000 z " style="fill: #ffffff; fill-opacity: 0.00; stroke: none;" id="ezcGraphPolygon_45"/><text id="ezcGraphTextBox_35_text" x="303.2432" text-length="170.6600px" y="353.9000" style="font-size: 14px; font-family: 'Arial'; fill: #2e3436; fill-opacity: 1.00; stroke: none;">CT16G48C40S5.... (1.0%)</text></g><g id="ezcGraphTextBox_39" style=" cursor: pointer;" onclick="top.location = 'https://bsd-hardware.info/?view=computers&amp;type=desktop&amp;f=memory_model&amp;v=Samsung+Electronics+RAM+M471A1K43CB1-CTD+8GB+SODIMM+DDR4+3200MT%2Fs&amp;c=UK'"><path d=" M 327.5262,399.0500 L 327.5262,369.4500 L 447.7462,369.4500 L 447.7462,399.0500 L 327.5262,399.0500 z " style="fill: #ffffff; fill-opacity: 0.00; stroke: none;" id="ezcGraphPolygon_46"/><text id="ezcGraphTextBox_39_text" x="328.0262" text-length="118.7200px" y="381.8500" style="font-size: 14px; font-family: 'Arial'; fill: #2e3436; fill-opacity: 1.00; stroke: none;">M471A1K43CB1-...</text><text id="ezcGraphTextBox_39_text" x="328.0262" text-length="44.5200px" y="397.2500" style="font-size: 14px; font-family: 'Arial'; fill: #2e3436; fill-opacity: 1.00; stroke: none;">(0.8%)</text></g></g></svg>
