<?xml version="1.0"?>
<svg xmlns="http://www.w3.org/2000/svg" width="500" height="420" version="1.0" id="ezcGraph"><defs/><g id="ezcGraphChart" color-rendering="optimizeQuality" shape-rendering="geometricPrecision" text-rendering="optimizeLegibility"><path d=" M 0.0000,420.0000 L 0.0000,0.0000 L 500.0000,0.0000 L 500.0000,420.0000 L 0.0000,420.0000 z " style="fill: #eeeeec; fill-opacity: 1.00; stroke: none;" id="ezcGraphPolygon_1"/><path d=" M 0.0000,42.0000 L 0.0000,0.0000 L 500.0000,0.0000 L 500.0000,42.0000 L 0.0000,42.0000 z " style="fill: #000000; fill-opacity: 0.00; stroke: none;" id="ezcGraphPolygon_2"/><path d="M 255.72,242.11 L 368.22,242.11 A 112.50,112.50 0 0,1 190.40,333.70 z" style="fill: #3465a4; fill-opacity: 1.00; stroke: none; cursor: pointer;" id="ezcGraphCircleSector_4" onclick="top.location = 'https://bsd-hardware.info/?view=computers&amp;f=memory_speed&amp;v=1600&amp;c=UK'"/><path d="M 255.98,242.61 L 367.72,242.61 A 112.00,112.00 0 0,1 191.10,333.59 z" style="fill: none; stroke: #1a3352; stroke-width: 1; stroke-opacity: 1.00; stroke-linecap: round; stroke-linejoin: round;" id="ezcGraphCircleSector_5"/><path d="M 250.00,231.00 L 184.68,322.59 A 112.50,112.50 0 0,1 139.40,251.57 z" style="fill: #4e9a06; fill-opacity: 1.00; stroke: none; cursor: pointer;" id="ezcGraphCircleSector_6" onclick="top.location = 'https://bsd-hardware.info/?view=computers&amp;f=memory_speed&amp;v=1333&amp;c=UK'"/><path d="M 248.87,231.72 L 184.56,321.89 A 112.00,112.00 0 0,1 139.98,251.97 z" style="fill: none; stroke: #274d03; stroke-width: 1; stroke-opacity: 1.00; stroke-linecap: round; stroke-linejoin: round;" id="ezcGraphCircleSector_7"/><path d="M 250.00,231.00 L 139.40,251.57 A 112.50,112.50 0 0,1 148.20,183.12 z" style="fill: #cc0000; fill-opacity: 1.00; stroke: none; cursor: pointer;" id="ezcGraphCircleSector_8" onclick="top.location = 'https://bsd-hardware.info/?view=computers&amp;f=memory_speed&amp;v=2400&amp;c=UK'"/><path d="M 248.38,230.79 L 139.80,250.98 A 112.00,112.00 0 0,1 148.44,183.78 z" style="fill: none; stroke: #660000; stroke-width: 1; stroke-opacity: 1.00; stroke-linecap: round; stroke-linejoin: round;" id="ezcGraphCircleSector_9"/><path d="M 250.00,231.00 L 148.20,183.12 A 112.50,112.50 0 0,1 183.22,140.46 z" style="fill: #edd400; fill-opacity: 1.00; stroke: none; cursor: pointer;" id="ezcGraphCircleSector_10" onclick="top.location = 'https://bsd-hardware.info/?view=computers&amp;f=memory_speed&amp;v=3200&amp;c=UK'"/><path d="M 248.42,229.71 L 148.86,182.88 A 112.00,112.00 0 0,1 183.12,141.16 z" style="fill: none; stroke: #776a00; stroke-width: 1; stroke-opacity: 1.00; stroke-linecap: round; stroke-linejoin: round;" id="ezcGraphCircleSector_11"/><path d="M 250.00,231.00 L 183.22,140.46 A 112.50,112.50 0 0,1 227.23,120.83 z" style="fill: #75505b; fill-opacity: 1.00; stroke: none; cursor: pointer;" id="ezcGraphCircleSector_12" onclick="top.location = 'https://bsd-hardware.info/?view=computers&amp;f=memory_speed&amp;v=2667&amp;c=UK'"/><path d="M 249.05,228.87 L 183.92,140.57 A 112.00,112.00 0 0,1 226.84,121.42 z" style="fill: none; stroke: #3b282e; stroke-width: 1; stroke-opacity: 1.00; stroke-linecap: round; stroke-linejoin: round;" id="ezcGraphCircleSector_13"/><path d="M 250.00,231.00 L 227.23,120.83 A 112.50,112.50 0 0,1 362.50,231.00 z" style="fill: #f57900; fill-opacity: 1.00; stroke: none;" id="ezcGraphCircleSector_14"/><path d="M 250.41,230.50 L 227.82,121.22 A 112.00,112.00 0 0,1 362.00,230.50 z" style="fill: none; stroke: #7b3d00; stroke-width: 1; stroke-opacity: 1.00; stroke-linecap: round; stroke-linejoin: round;" id="ezcGraphCircleSector_15"/><path d=" M 216.0444,154.8983 L 195.0102,116.0000" style="fill: none; stroke: #000000; stroke-width: 1; stroke-opacity: 1.00; stroke-linecap: round; stroke-linejoin: round;" id="ezcGraphLine_16"/><ellipse cx="216.0444" cy="154.8983" rx="3.0000" ry="3.0000" style="fill: #000000; fill-opacity: 1.00; stroke: none;" id="ezcGraphCircle_17"/><ellipse cx="195.0102" cy="116.0000" rx="3.0000" ry="3.0000" style="fill: #000000; fill-opacity: 1.00; stroke: none;" id="ezcGraphCircle_18"/><path d=" M 185.5957,178.1178 L 145.9248,153.5000" style="fill: none; stroke: #000000; stroke-width: 1; stroke-opacity: 1.00; stroke-linecap: round; stroke-linejoin: round;" id="ezcGraphLine_20"/><ellipse cx="185.5957" cy="178.1178" rx="3.0000" ry="3.0000" style="fill: #000000; fill-opacity: 1.00; stroke: none;" id="ezcGraphCircle_21"/><ellipse cx="145.9248" cy="153.5000" rx="3.0000" ry="3.0000" style="fill: #000000; fill-opacity: 1.00; stroke: none;" id="ezcGraphCircle_22"/><path d=" M 167.3474,220.3705 L 120.0282,215.0000" style="fill: none; stroke: #000000; stroke-width: 1; stroke-opacity: 1.00; stroke-linecap: round; stroke-linejoin: round;" id="ezcGraphLine_24"/><ellipse cx="167.3474" cy="220.3705" rx="3.0000" ry="3.0000" style="fill: #000000; fill-opacity: 1.00; stroke: none;" id="ezcGraphCircle_25"/><ellipse cx="120.0282" cy="215.0000" rx="3.0000" ry="3.0000" style="fill: #000000; fill-opacity: 1.00; stroke: none;" id="ezcGraphCircle_26"/><path d=" M 179.7323,275.7984 L 138.4728,298.0000" style="fill: none; stroke: #000000; stroke-width: 1; stroke-opacity: 1.00; stroke-linecap: round; stroke-linejoin: round;" id="ezcGraphLine_28"/><ellipse cx="179.7323" cy="275.7984" rx="3.0000" ry="3.0000" style="fill: #000000; fill-opacity: 1.00; stroke: none;" id="ezcGraphCircle_29"/><ellipse cx="138.4728" cy="298.0000" rx="3.0000" ry="3.0000" style="fill: #000000; fill-opacity: 1.00; stroke: none;" id="ezcGraphCircle_30"/><path d=" M 302.6244,166.3848 L 334.8416,134.0000" style="fill: none; stroke: #000000; stroke-width: 1; stroke-opacity: 1.00; stroke-linecap: round; stroke-linejoin: round;" id="ezcGraphLine_32"/><ellipse cx="302.6244" cy="166.3848" rx="3.0000" ry="3.0000" style="fill: #000000; fill-opacity: 1.00; stroke: none;" id="ezcGraphCircle_33"/><ellipse cx="334.8416" cy="134.0000" rx="3.0000" ry="3.0000" style="fill: #000000; fill-opacity: 1.00; stroke: none;" id="ezcGraphCircle_34"/><path d=" M 293.8824,316.1960 L 283.2213,353.0000" style="fill: none; stroke: #000000; stroke-width: 1; stroke-opacity: 1.00; stroke-linecap: round; stroke-linejoin: round;" id="ezcGraphLine_36"/><ellipse cx="293.8824" cy="316.1960" rx="3.0000" ry="3.0000" style="fill: #000000; fill-opacity: 1.00; stroke: none;" id="ezcGraphCircle_37"/><ellipse cx="283.2213" cy="353.0000" rx="3.0000" ry="3.0000" style="fill: #000000; fill-opacity: 1.00; stroke: none;" id="ezcGraphCircle_38"/><g id="ezcGraphTextBox_3"><path d=" M 122.3000,42.0000 L 122.3000,0.5000 L 378.2000,0.5000 L 378.2000,42.0000 L 122.3000,42.0000 z " style="fill: #ffffff; fill-opacity: 0.00; stroke: none;" id="ezcGraphPolygon_40"/><text id="ezcGraphTextBox_3_text" x="122.8000" text-length="254.4000px" y="35.0000" style="font-size: 40px; font-family: 'Arial'; fill: #2e3436; fill-opacity: 1.00; stroke: none;">Memory Speed</text></g><g id="ezcGraphTextBox_19" style=" cursor: pointer;" onclick="top.location = 'https://bsd-hardware.info/?view=computers&amp;f=memory_speed&amp;v=2667&amp;c=UK'"><path d=" M 74.8252,126.7500 L 74.8252,105.7500 L 190.0102,105.7500 L 190.0102,126.7500 L 74.8252,126.7500 z " style="fill: #ffffff; fill-opacity: 0.00; stroke: none;" id="ezcGraphPolygon_41"/><text id="ezcGraphTextBox_19_text" x="75.3252" text-length="113.6850px" y="122.8250" style="font-size: 19px; font-family: 'Arial'; fill: #2e3436; fill-opacity: 1.00; stroke: none;">2667 (6.9%)</text></g><g id="ezcGraphTextBox_23" style=" cursor: pointer;" onclick="top.location = 'https://bsd-hardware.info/?view=computers&amp;f=memory_speed&amp;v=3200&amp;c=UK'"><path d=" M 25.7398,164.2500 L 25.7398,143.2500 L 140.9248,143.2500 L 140.9248,164.2500 L 25.7398,164.2500 z " style="fill: #ffffff; fill-opacity: 0.00; stroke: none;" id="ezcGraphPolygon_42"/><text id="ezcGraphTextBox_23_text" x="26.2398" text-length="113.6850px" y="160.3250" style="font-size: 19px; font-family: 'Arial'; fill: #2e3436; fill-opacity: 1.00; stroke: none;">3200 (7.9%)</text></g><g id="ezcGraphTextBox_27" style=" cursor: pointer;" onclick="top.location = 'https://bsd-hardware.info/?view=computers&amp;f=memory_speed&amp;v=2400&amp;c=UK'"><path d=" M -0.1568,225.7500 L -0.1568,204.7500 L 115.0282,204.7500 L 115.0282,225.7500 L -0.1568,225.7500 z " style="fill: #ffffff; fill-opacity: 0.00; stroke: none;" id="ezcGraphPolygon_43"/><text id="ezcGraphTextBox_27_text" x="0.3432" text-length="113.6850px" y="221.8250" style="font-size: 19px; font-family: 'Arial'; fill: #2e3436; fill-opacity: 1.00; stroke: none;">2400 (9.9%)</text></g><g id="ezcGraphTextBox_31" style=" cursor: pointer;" onclick="top.location = 'https://bsd-hardware.info/?view=computers&amp;f=memory_speed&amp;v=1333&amp;c=UK'"><path d=" M 7.9528,308.7500 L 7.9528,287.7500 L 133.4728,287.7500 L 133.4728,308.7500 L 7.9528,308.7500 z " style="fill: #ffffff; fill-opacity: 0.00; stroke: none;" id="ezcGraphPolygon_44"/><text id="ezcGraphTextBox_31_text" x="8.4528" text-length="124.0200px" y="304.8250" style="font-size: 19px; font-family: 'Arial'; fill: #2e3436; fill-opacity: 1.00; stroke: none;">1333 (12.2%)</text></g><g id="ezcGraphTextBox_35"><path d=" M 340.3416,144.7500 L 340.3416,123.7500 L 486.5316,123.7500 L 486.5316,144.7500 L 340.3416,144.7500 z " style="fill: #ffffff; fill-opacity: 0.00; stroke: none;" id="ezcGraphPolygon_45"/><text id="ezcGraphTextBox_35_text" x="340.8416" text-length="144.6900px" y="140.8250" style="font-size: 19px; font-family: 'Arial'; fill: #2e3436; fill-opacity: 1.00; stroke: none;">Others (28.2%)</text></g><g id="ezcGraphTextBox_39" style=" cursor: pointer;" onclick="top.location = 'https://bsd-hardware.info/?view=computers&amp;f=memory_speed&amp;v=1600&amp;c=UK'"><path d=" M 288.7213,363.7500 L 288.7213,342.7500 L 414.2413,342.7500 L 414.2413,363.7500 L 288.7213,363.7500 z " style="fill: #ffffff; fill-opacity: 0.00; stroke: none;" id="ezcGraphPolygon_46"/><text id="ezcGraphTextBox_39_text" x="289.2213" text-length="124.0200px" y="359.8250" style="font-size: 19px; font-family: 'Arial'; fill: #2e3436; fill-opacity: 1.00; stroke: none;">1600 (34.9%)</text></g></g></svg>
