<?xml version="1.0"?>
<svg xmlns="http://www.w3.org/2000/svg" width="500" height="420" version="1.0" id="ezcGraph"><defs/><g id="ezcGraphChart" color-rendering="optimizeQuality" shape-rendering="geometricPrecision" text-rendering="optimizeLegibility"><path d=" M 0.0000,420.0000 L 0.0000,0.0000 L 500.0000,0.0000 L 500.0000,420.0000 L 0.0000,420.0000 z " style="fill: #eeeeec; fill-opacity: 1.00; stroke: none;" id="ezcGraphPolygon_1"/><path d=" M 0.0000,42.0000 L 0.0000,0.0000 L 500.0000,0.0000 L 500.0000,42.0000 L 0.0000,42.0000 z " style="fill: #000000; fill-opacity: 0.00; stroke: none;" id="ezcGraphPolygon_2"/><path d="M 262.45,232.06 L 374.95,232.06 A 112.50,112.50 0 0,1 373.32,251.16 z" style="fill: #3465a4; fill-opacity: 1.00; stroke: none; cursor: pointer;" id="ezcGraphCircleSector_4" onclick="top.location = 'https://bsd-hardware.info/?view=computers&amp;type=notebook&amp;f=memory_model&amp;v='"/><path d="M 268.30,232.56 L 374.45,232.56 A 112.00,112.00 0 0,1 372.91,250.58 z" style="fill: none; stroke: #1a3352; stroke-width: 1; stroke-opacity: 1.00; stroke-linecap: round; stroke-linejoin: round;" id="ezcGraphCircleSector_5"/><path d="M 250.00,231.00 L 360.87,250.09 A 112.50,112.50 0 0,1 356.99,265.77 z" style="fill: #4e9a06; fill-opacity: 1.00; stroke: none; cursor: pointer;" id="ezcGraphCircleSector_6" onclick="top.location = 'https://bsd-hardware.info/?view=computers&amp;type=notebook&amp;f=memory_model&amp;v=Transcend+RAM+TS1GLH64V6BL+8GB+SODIMM+DDR4+2667MT%2Fs'"/><path d="M 256.76,232.67 L 360.29,250.50 A 112.00,112.00 0 0,1 356.67,265.14 z" style="fill: none; stroke: #274d03; stroke-width: 1; stroke-opacity: 1.00; stroke-linecap: round; stroke-linejoin: round;" id="ezcGraphCircleSector_7"/><path d="M 250.00,231.00 L 356.99,265.77 A 112.50,112.50 0 0,1 353.49,275.11 z" style="fill: #cc0000; fill-opacity: 1.00; stroke: none; cursor: pointer;" id="ezcGraphCircleSector_8" onclick="top.location = 'https://bsd-hardware.info/?view=computers&amp;type=notebook&amp;f=memory_model&amp;v=SK+hynix+RAM+HMT451S6BFR8A-PB+4GB+SODIMM+DDR3+1600MT%2Fs'"/><path d="M 260.57,234.96 L 356.36,266.09 A 112.00,112.00 0 0,1 353.23,274.45 z" style="fill: none; stroke: #660000; stroke-width: 1; stroke-opacity: 1.00; stroke-linecap: round; stroke-linejoin: round;" id="ezcGraphCircleSector_9"/><path d="M 250.00,231.00 L 353.49,275.11 A 112.50,112.50 0 0,1 349.68,283.16 z" style="fill: #edd400; fill-opacity: 1.00; stroke: none; cursor: pointer;" id="ezcGraphCircleSector_10" onclick="top.location = 'https://bsd-hardware.info/?view=computers&amp;type=notebook&amp;f=memory_model&amp;v=SK+hynix+RAM+HMA81GS6AFR8N-UH+8GB+SODIMM+DDR4+2400MT%2Fs'"/><path d="M 261.41,236.41 L 352.84,275.37 A 112.00,112.00 0 0,1 349.47,282.48 z" style="fill: none; stroke: #776a00; stroke-width: 1; stroke-opacity: 1.00; stroke-linecap: round; stroke-linejoin: round;" id="ezcGraphCircleSector_11"/><path d="M 250.00,231.00 L 349.68,283.16 A 112.50,112.50 0 0,1 345.40,290.63 z" style="fill: #75505b; fill-opacity: 1.00; stroke: none; cursor: pointer;" id="ezcGraphCircleSector_12" onclick="top.location = 'https://bsd-hardware.info/?view=computers&amp;type=notebook&amp;f=memory_model&amp;v=Samsung+Electronics+RAM+M471B5273DH0-CH9+4GB+SODIMM+DDR3+1334MT%2Fs'"/><path d="M 261.34,237.50 L 349.00,283.37 A 112.00,112.00 0 0,1 345.24,289.94 z" style="fill: none; stroke: #3b282e; stroke-width: 1; stroke-opacity: 1.00; stroke-linecap: round; stroke-linejoin: round;" id="ezcGraphCircleSector_13"/><path d="M 250.00,231.00 L 345.40,290.63 A 112.50,112.50 0 1,1 362.50,231.00 z" style="fill: #f57900; fill-opacity: 1.00; stroke: none;" id="ezcGraphCircleSector_14"/><path d="M 248.26,230.50 L 344.71,290.79 A 112.00,112.00 0 1,1 362.00,230.50 z" style="fill: none; stroke: #7b3d00; stroke-width: 1; stroke-opacity: 1.00; stroke-linecap: round; stroke-linejoin: round;" id="ezcGraphCircleSector_15"/><path d=" M 169.8962,208.0254 L 124.0000,196.0000" style="fill: none; stroke: #000000; stroke-width: 1; stroke-opacity: 1.00; stroke-linecap: round; stroke-linejoin: round;" id="ezcGraphLine_16"/><ellipse cx="169.8962" cy="208.0254" rx="3.0000" ry="3.0000" style="fill: #000000; fill-opacity: 1.00; stroke: none;" id="ezcGraphCircle_17"/><ellipse cx="124.0000" cy="196.0000" rx="3.0000" ry="3.0000" style="fill: #000000; fill-opacity: 1.00; stroke: none;" id="ezcGraphCircle_18"/><path d=" M 345.4851,239.1619 L 380.5151,242.0000" style="fill: none; stroke: #000000; stroke-width: 1; stroke-opacity: 1.00; stroke-linecap: round; stroke-linejoin: round;" id="ezcGraphLine_20"/><ellipse cx="345.4851" cy="239.1619" rx="3.0000" ry="3.0000" style="fill: #000000; fill-opacity: 1.00; stroke: none;" id="ezcGraphCircle_21"/><ellipse cx="380.5151" cy="242.0000" rx="3.0000" ry="3.0000" style="fill: #000000; fill-opacity: 1.00; stroke: none;" id="ezcGraphCircle_22"/><path d=" M 330.8974,251.0015 L 372.2282,277.0000" style="fill: none; stroke: #000000; stroke-width: 1; stroke-opacity: 1.00; stroke-linecap: round; stroke-linejoin: round;" id="ezcGraphLine_24"/><ellipse cx="330.8974" cy="251.0015" rx="3.0000" ry="3.0000" style="fill: #000000; fill-opacity: 1.00; stroke: none;" id="ezcGraphCircle_25"/><ellipse cx="372.2282" cy="277.0000" rx="3.0000" ry="3.0000" style="fill: #000000; fill-opacity: 1.00; stroke: none;" id="ezcGraphCircle_26"/><path d=" M 328.0342,260.2423 L 351.2050,312.0000" style="fill: none; stroke: #000000; stroke-width: 1; stroke-opacity: 1.00; stroke-linecap: round; stroke-linejoin: round;" id="ezcGraphLine_28"/><ellipse cx="328.0342" cy="260.2423" rx="3.0000" ry="3.0000" style="fill: #000000; fill-opacity: 1.00; stroke: none;" id="ezcGraphCircle_29"/><ellipse cx="351.2050" cy="312.0000" rx="3.0000" ry="3.0000" style="fill: #000000; fill-opacity: 1.00; stroke: none;" id="ezcGraphCircle_30"/><path d=" M 325.3081,266.6810 L 302.5725,347.0000" style="fill: none; stroke: #000000; stroke-width: 1; stroke-opacity: 1.00; stroke-linecap: round; stroke-linejoin: round;" id="ezcGraphLine_32"/><ellipse cx="325.3081" cy="266.6810" rx="3.0000" ry="3.0000" style="fill: #000000; fill-opacity: 1.00; stroke: none;" id="ezcGraphCircle_33"/><ellipse cx="302.5725" cy="347.0000" rx="3.0000" ry="3.0000" style="fill: #000000; fill-opacity: 1.00; stroke: none;" id="ezcGraphCircle_34"/><path d=" M 322.3036,272.4322 L 322.3036,382.0000" style="fill: none; stroke: #000000; stroke-width: 1; stroke-opacity: 1.00; stroke-linecap: round; stroke-linejoin: round;" id="ezcGraphLine_36"/><ellipse cx="322.3036" cy="272.4322" rx="3.0000" ry="3.0000" style="fill: #000000; fill-opacity: 1.00; stroke: none;" id="ezcGraphCircle_37"/><ellipse cx="322.3036" cy="382.0000" rx="3.0000" ry="3.0000" style="fill: #000000; fill-opacity: 1.00; stroke: none;" id="ezcGraphCircle_38"/><g id="ezcGraphTextBox_3"><path d=" M 122.3000,42.0000 L 122.3000,0.5000 L 378.2000,0.5000 L 378.2000,42.0000 L 122.3000,42.0000 z " style="fill: #ffffff; fill-opacity: 0.00; stroke: none;" id="ezcGraphPolygon_40"/><text id="ezcGraphTextBox_3_text" x="122.8000" text-length="254.4000px" y="35.0000" style="font-size: 40px; font-family: 'Arial'; fill: #2e3436; fill-opacity: 1.00; stroke: none;">Memory Model</text></g><g id="ezcGraphTextBox_19"><path d=" M 58.1400,213.0500 L 58.1400,179.4500 L 119.0000,179.4500 L 119.0000,213.0500 L 58.1400,213.0500 z " style="fill: #ffffff; fill-opacity: 0.00; stroke: none;" id="ezcGraphPolygon_41"/><text id="ezcGraphTextBox_19_text" x="67.1200" text-length="50.8800px" y="193.5500" style="font-size: 16px; font-family: 'Arial'; fill: #2e3436; fill-opacity: 1.00; stroke: none;">Others</text><text id="ezcGraphTextBox_19_text" x="58.6400" text-length="59.3600px" y="211.1500" style="font-size: 16px; font-family: 'Arial'; fill: #2e3436; fill-opacity: 1.00; stroke: none;">(91.1%)</text></g><g id="ezcGraphTextBox_23" style=" cursor: pointer;" onclick="top.location = 'https://bsd-hardware.info/?view=computers&amp;type=notebook&amp;f=memory_model&amp;v='"><path d=" M 386.0151,259.0500 L 386.0151,225.4500 L 489.2751,225.4500 L 489.2751,259.0500 L 386.0151,259.0500 z " style="fill: #ffffff; fill-opacity: 0.00; stroke: none;" id="ezcGraphPolygon_42"/><text id="ezcGraphTextBox_23_text" x="386.5151" text-length="76.3200px" y="239.5500" style="font-size: 16px; font-family: 'Arial'; fill: #2e3436; fill-opacity: 1.00; stroke: none;">C N V 4GB</text><text id="ezcGraphTextBox_23_text" x="386.5151" text-length="101.7600px" y="257.1500" style="font-size: 16px; font-family: 'Arial'; fill: #2e3436; fill-opacity: 1.00; stroke: none;">SO... (2.7%)</text></g><g id="ezcGraphTextBox_27" style=" cursor: pointer;" onclick="top.location = 'https://bsd-hardware.info/?view=computers&amp;type=notebook&amp;f=memory_model&amp;v=Transcend+RAM+TS1GLH64V6BL+8GB+SODIMM+DDR4+2667MT%2Fs'"><path d=" M 377.7282,294.0500 L 377.7282,260.4500 L 480.9882,260.4500 L 480.9882,294.0500 L 377.7282,294.0500 z " style="fill: #ffffff; fill-opacity: 0.00; stroke: none;" id="ezcGraphPolygon_43"/><text id="ezcGraphTextBox_27_text" x="378.2282" text-length="101.7600px" y="274.5500" style="font-size: 16px; font-family: 'Arial'; fill: #2e3436; fill-opacity: 1.00; stroke: none;">TS1GLH64V6BL</text><text id="ezcGraphTextBox_27_text" x="378.2282" text-length="84.8000px" y="292.1500" style="font-size: 16px; font-family: 'Arial'; fill: #2e3436; fill-opacity: 1.00; stroke: none;">... (2.3%)</text></g><g id="ezcGraphTextBox_31" style=" cursor: pointer;" onclick="top.location = 'https://bsd-hardware.info/?view=computers&amp;type=notebook&amp;f=memory_model&amp;v=SK+hynix+RAM+HMT451S6BFR8A-PB+4GB+SODIMM+DDR3+1600MT%2Fs'"><path d=" M 356.7050,329.0500 L 356.7050,295.4500 L 493.8850,295.4500 L 493.8850,329.0500 L 356.7050,329.0500 z " style="fill: #ffffff; fill-opacity: 0.00; stroke: none;" id="ezcGraphPolygon_44"/><text id="ezcGraphTextBox_31_text" x="357.2050" text-length="135.6800px" y="309.5500" style="font-size: 16px; font-family: 'Arial'; fill: #2e3436; fill-opacity: 1.00; stroke: none;">HMT451S6BFR8A...</text><text id="ezcGraphTextBox_31_text" x="357.2050" text-length="50.8800px" y="327.1500" style="font-size: 16px; font-family: 'Arial'; fill: #2e3436; fill-opacity: 1.00; stroke: none;">(1.4%)</text></g><g id="ezcGraphTextBox_35" style=" cursor: pointer;" onclick="top.location = 'https://bsd-hardware.info/?view=computers&amp;type=notebook&amp;f=memory_model&amp;v=SK+hynix+RAM+HMA81GS6AFR8N-UH+8GB+SODIMM+DDR4+2400MT%2Fs'"><path d=" M 308.0725,364.0500 L 308.0725,330.4500 L 445.2525,330.4500 L 445.2525,364.0500 L 308.0725,364.0500 z " style="fill: #ffffff; fill-opacity: 0.00; stroke: none;" id="ezcGraphPolygon_45"/><text id="ezcGraphTextBox_35_text" x="308.5725" text-length="135.6800px" y="344.5500" style="font-size: 16px; font-family: 'Arial'; fill: #2e3436; fill-opacity: 1.00; stroke: none;">HMA81GS6AFR8N...</text><text id="ezcGraphTextBox_35_text" x="308.5725" text-length="50.8800px" y="362.1500" style="font-size: 16px; font-family: 'Arial'; fill: #2e3436; fill-opacity: 1.00; stroke: none;">(1.3%)</text></g><g id="ezcGraphTextBox_39" style=" cursor: pointer;" onclick="top.location = 'https://bsd-hardware.info/?view=computers&amp;type=notebook&amp;f=memory_model&amp;v=Samsung+Electronics+RAM+M471B5273DH0-CH9+4GB+SODIMM+DDR3+1334MT%2Fs'"><path d=" M 327.8036,399.0500 L 327.8036,365.4500 L 464.9836,365.4500 L 464.9836,399.0500 L 327.8036,399.0500 z " style="fill: #ffffff; fill-opacity: 0.00; stroke: none;" id="ezcGraphPolygon_46"/><text id="ezcGraphTextBox_39_text" x="328.3036" text-length="135.6800px" y="379.5500" style="font-size: 16px; font-family: 'Arial'; fill: #2e3436; fill-opacity: 1.00; stroke: none;">M471B5273DH0-...</text><text id="ezcGraphTextBox_39_text" x="328.3036" text-length="50.8800px" y="397.1500" style="font-size: 16px; font-family: 'Arial'; fill: #2e3436; fill-opacity: 1.00; stroke: none;">(1.2%)</text></g></g></svg>
