<?xml version="1.0"?>
<svg xmlns="http://www.w3.org/2000/svg" width="500" height="420" version="1.0" id="ezcGraph"><defs/><g id="ezcGraphChart" color-rendering="optimizeQuality" shape-rendering="geometricPrecision" text-rendering="optimizeLegibility"><path d=" M 0.0000,420.0000 L 0.0000,0.0000 L 500.0000,0.0000 L 500.0000,420.0000 L 0.0000,420.0000 z " style="fill: #eeeeec; fill-opacity: 1.00; stroke: none;" id="ezcGraphPolygon_1"/><path d=" M 0.0000,42.0000 L 0.0000,0.0000 L 500.0000,0.0000 L 500.0000,42.0000 L 0.0000,42.0000 z " style="fill: #000000; fill-opacity: 0.00; stroke: none;" id="ezcGraphPolygon_2"/><path d="M 250.05,243.50 L 362.55,243.50 A 112.50,112.50 0 0,1 137.56,244.46 z" style="fill: #3465a4; fill-opacity: 1.00; stroke: none; cursor: pointer;" id="ezcGraphCircleSector_4" onclick="top.location = 'https://bsd-hardware.info/?view=computers&amp;type=desktop&amp;f=mon_total&amp;v=0'"/><path d="M 250.06,244.00 L 362.05,244.00 A 112.00,112.00 0 0,1 138.06,244.95 z" style="fill: none; stroke: #1a3352; stroke-width: 1; stroke-opacity: 1.00; stroke-linecap: round; stroke-linejoin: round;" id="ezcGraphCircleSector_5"/><path d="M 250.00,231.00 L 137.50,231.96 A 112.50,112.50 0 0,1 348.76,177.12 z" style="fill: #4e9a06; fill-opacity: 1.00; stroke: none; cursor: pointer;" id="ezcGraphCircleSector_6" onclick="top.location = 'https://bsd-hardware.info/?view=computers&amp;type=desktop&amp;f=mon_total&amp;v=1'"/><path d="M 249.87,230.50 L 138.00,231.45 A 112.00,112.00 0 0,1 348.08,176.92 z" style="fill: none; stroke: #274d03; stroke-width: 1; stroke-opacity: 1.00; stroke-linecap: round; stroke-linejoin: round;" id="ezcGraphCircleSector_7"/><path d="M 250.00,231.00 L 348.76,177.12 A 112.50,112.50 0 0,1 362.32,224.62 z" style="fill: #cc0000; fill-opacity: 1.00; stroke: none; cursor: pointer;" id="ezcGraphCircleSector_8" onclick="top.location = 'https://bsd-hardware.info/?view=computers&amp;type=desktop&amp;f=mon_total&amp;v=2'"/><path d="M 252.19,230.37 L 348.56,177.79 A 112.00,112.00 0 0,1 361.79,224.15 z" style="fill: none; stroke: #660000; stroke-width: 1; stroke-opacity: 1.00; stroke-linecap: round; stroke-linejoin: round;" id="ezcGraphCircleSector_9"/><path d="M 250.00,231.00 L 362.32,224.62 A 112.50,112.50 0 0,1 362.50,230.36 z" style="fill: #edd400; fill-opacity: 1.00; stroke: none; cursor: pointer;" id="ezcGraphCircleSector_10" onclick="top.location = 'https://bsd-hardware.info/?view=computers&amp;type=desktop&amp;f=mon_total&amp;v=3'"/><path d="M 269.57,230.39 L 361.85,225.15 A 112.00,112.00 0 0,1 362.00,229.86 z" style="fill: none; stroke: #776a00; stroke-width: 1; stroke-opacity: 1.00; stroke-linecap: round; stroke-linejoin: round;" id="ezcGraphCircleSector_11"/><path d="M 250.00,231.00 L 362.50,230.36 A 112.50,112.50 0 0,1 362.50,231.00 z" style="fill: #75505b; fill-opacity: 1.00; stroke: none; cursor: pointer;" id="ezcGraphCircleSector_12" onclick="top.location = 'https://bsd-hardware.info/?view=computers&amp;type=desktop&amp;f=mon_total&amp;v=4'"/><path d=" M 229.0606,150.3403 L 212.6312,110.0000" style="fill: none; stroke: #000000; stroke-width: 1; stroke-opacity: 1.00; stroke-linecap: round; stroke-linejoin: round;" id="ezcGraphLine_13"/><ellipse cx="229.0606" cy="150.3403" rx="3.0000" ry="3.0000" style="fill: #000000; fill-opacity: 1.00; stroke: none;" id="ezcGraphCircle_14"/><ellipse cx="212.6312" cy="110.0000" rx="3.0000" ry="3.0000" style="fill: #000000; fill-opacity: 1.00; stroke: none;" id="ezcGraphCircle_15"/><path d=" M 330.1312,208.1212 L 376.0000,196.0000" style="fill: none; stroke: #000000; stroke-width: 1; stroke-opacity: 1.00; stroke-linecap: round; stroke-linejoin: round;" id="ezcGraphLine_17"/><ellipse cx="330.1312" cy="208.1212" rx="3.0000" ry="3.0000" style="fill: #000000; fill-opacity: 1.00; stroke: none;" id="ezcGraphCircle_18"/><ellipse cx="376.0000" cy="196.0000" rx="3.0000" ry="3.0000" style="fill: #000000; fill-opacity: 1.00; stroke: none;" id="ezcGraphCircle_19"/><path d=" M 333.2927,228.3990 L 380.9750,233.5000" style="fill: none; stroke: #000000; stroke-width: 1; stroke-opacity: 1.00; stroke-linecap: round; stroke-linejoin: round;" id="ezcGraphLine_21"/><ellipse cx="333.2927" cy="228.3990" rx="3.0000" ry="3.0000" style="fill: #000000; fill-opacity: 1.00; stroke: none;" id="ezcGraphCircle_22"/><ellipse cx="380.9750" cy="233.5000" rx="3.0000" ry="3.0000" style="fill: #000000; fill-opacity: 1.00; stroke: none;" id="ezcGraphCircle_23"/><path d=" M 333.3330,230.7635 L 374.4272,271.0000" style="fill: none; stroke: #000000; stroke-width: 1; stroke-opacity: 1.00; stroke-linecap: round; stroke-linejoin: round;" id="ezcGraphLine_25"/><ellipse cx="333.3330" cy="230.7635" rx="3.0000" ry="3.0000" style="fill: #000000; fill-opacity: 1.00; stroke: none;" id="ezcGraphCircle_26"/><ellipse cx="374.4272" cy="271.0000" rx="3.0000" ry="3.0000" style="fill: #000000; fill-opacity: 1.00; stroke: none;" id="ezcGraphCircle_27"/><path d=" M 250.4080,326.8325 L 255.0000,368.0000" style="fill: none; stroke: #000000; stroke-width: 1; stroke-opacity: 1.00; stroke-linecap: round; stroke-linejoin: round;" id="ezcGraphLine_29"/><ellipse cx="250.4080" cy="326.8325" rx="3.0000" ry="3.0000" style="fill: #000000; fill-opacity: 1.00; stroke: none;" id="ezcGraphCircle_30"/><ellipse cx="255.0000" cy="368.0000" rx="3.0000" ry="3.0000" style="fill: #000000; fill-opacity: 1.00; stroke: none;" id="ezcGraphCircle_31"/><g id="ezcGraphTextBox_3"><path d=" M 69.3000,42.0000 L 69.3000,0.5000 L 431.2000,0.5000 L 431.2000,42.0000 L 69.3000,42.0000 z " style="fill: #ffffff; fill-opacity: 0.00; stroke: none;" id="ezcGraphPolygon_33"/><text id="ezcGraphTextBox_3_text" x="69.8000" text-length="360.4000px" y="35.0000" style="font-size: 40px; font-family: 'Arial'; fill: #2e3436; fill-opacity: 1.00; stroke: none;">Multiple Monitors</text></g><g id="ezcGraphTextBox_16" style=" cursor: pointer;" onclick="top.location = 'https://bsd-hardware.info/?view=computers&amp;type=desktop&amp;f=mon_total&amp;v=1'"><path d=" M 79.7262,124.2500 L 79.7262,96.2500 L 207.6312,96.2500 L 207.6312,124.2500 L 79.7262,124.2500 z " style="fill: #ffffff; fill-opacity: 0.00; stroke: none;" id="ezcGraphPolygon_34"/><text id="ezcGraphTextBox_16_text" x="80.2262" text-length="126.4050px" y="119.2750" style="font-size: 26px; font-family: 'Arial'; fill: #2e3436; fill-opacity: 1.00; stroke: none;">1 (42.2%)</text></g><g id="ezcGraphTextBox_20" style=" cursor: pointer;" onclick="top.location = 'https://bsd-hardware.info/?view=computers&amp;type=desktop&amp;f=mon_total&amp;v=2'"><path d=" M 381.5000,210.2500 L 381.5000,182.2500 L 495.3600,182.2500 L 495.3600,210.2500 L 381.5000,210.2500 z " style="fill: #ffffff; fill-opacity: 0.00; stroke: none;" id="ezcGraphPolygon_35"/><text id="ezcGraphTextBox_20_text" x="382.0000" text-length="112.3600px" y="205.2750" style="font-size: 26px; font-family: 'Arial'; fill: #2e3436; fill-opacity: 1.00; stroke: none;">2 (7.0%)</text></g><g id="ezcGraphTextBox_24" style=" cursor: pointer;" onclick="top.location = 'https://bsd-hardware.info/?view=computers&amp;type=desktop&amp;f=mon_total&amp;v=3'"><path d=" M 386.4750,247.7500 L 386.4750,219.7500 L 500.3350,219.7500 L 500.3350,247.7500 L 386.4750,247.7500 z " style="fill: #ffffff; fill-opacity: 0.00; stroke: none;" id="ezcGraphPolygon_36"/><text id="ezcGraphTextBox_24_text" x="386.9750" text-length="112.3600px" y="242.7750" style="font-size: 26px; font-family: 'Arial'; fill: #2e3436; fill-opacity: 1.00; stroke: none;">3 (0.8%)</text></g><g id="ezcGraphTextBox_28" style=" cursor: pointer;" onclick="top.location = 'https://bsd-hardware.info/?view=computers&amp;type=desktop&amp;f=mon_total&amp;v=4'"><path d=" M 379.9272,285.2500 L 379.9272,257.2500 L 493.7872,257.2500 L 493.7872,285.2500 L 379.9272,285.2500 z " style="fill: #ffffff; fill-opacity: 0.00; stroke: none;" id="ezcGraphPolygon_37"/><text id="ezcGraphTextBox_28_text" x="380.4272" text-length="112.3600px" y="280.2750" style="font-size: 26px; font-family: 'Arial'; fill: #2e3436; fill-opacity: 1.00; stroke: none;">4 (0.1%)</text></g><g id="ezcGraphTextBox_32" style=" cursor: pointer;" onclick="top.location = 'https://bsd-hardware.info/?view=computers&amp;type=desktop&amp;f=mon_total&amp;v=0'"><path d=" M 260.5000,382.2500 L 260.5000,354.2500 L 388.4050,354.2500 L 388.4050,382.2500 L 260.5000,382.2500 z " style="fill: #ffffff; fill-opacity: 0.00; stroke: none;" id="ezcGraphPolygon_38"/><text id="ezcGraphTextBox_32_text" x="261.0000" text-length="126.4050px" y="377.2750" style="font-size: 26px; font-family: 'Arial'; fill: #2e3436; fill-opacity: 1.00; stroke: none;">0 (49.9%)</text></g></g></svg>
