<?xml version="1.0"?>
<svg xmlns="http://www.w3.org/2000/svg" width="500" height="420" version="1.0" id="ezcGraph"><defs/><g id="ezcGraphChart" color-rendering="optimizeQuality" shape-rendering="geometricPrecision" text-rendering="optimizeLegibility"><path d=" M 0.0000,420.0000 L 0.0000,0.0000 L 500.0000,0.0000 L 500.0000,420.0000 L 0.0000,420.0000 z " style="fill: #eeeeec; fill-opacity: 1.00; stroke: none;" id="ezcGraphPolygon_1"/><path d=" M 0.0000,42.0000 L 0.0000,0.0000 L 500.0000,0.0000 L 500.0000,42.0000 L 0.0000,42.0000 z " style="fill: #000000; fill-opacity: 0.00; stroke: none;" id="ezcGraphPolygon_2"/><path d="M 255.24,242.35 L 367.74,242.35 A 112.50,112.50 0 0,1 182.27,327.98 z" style="fill: #3465a4; fill-opacity: 1.00; stroke: none; cursor: pointer;" id="ezcGraphCircleSector_4" onclick="top.location = 'https://bsd-hardware.info/?view=computers&amp;type=notebook&amp;f=device_unsupported&amp;v=2&amp;c=Italy'"/><path d="M 255.47,242.85 L 367.24,242.85 A 112.00,112.00 0 0,1 182.98,327.92 z" style="fill: none; stroke: #1a3352; stroke-width: 1; stroke-opacity: 1.00; stroke-linecap: round; stroke-linejoin: round;" id="ezcGraphCircleSector_5"/><path d="M 250.00,231.00 L 177.03,316.63 A 112.50,112.50 0 0,1 162.73,160.00 z" style="fill: #4e9a06; fill-opacity: 1.00; stroke: none; cursor: pointer;" id="ezcGraphCircleSector_6" onclick="top.location = 'https://bsd-hardware.info/?view=computers&amp;type=notebook&amp;f=device_unsupported&amp;v=1&amp;c=Italy'"/><path d="M 249.29,231.07 L 176.98,315.92 A 112.00,112.00 0 0,1 162.80,160.71 z" style="fill: none; stroke: #274d03; stroke-width: 1; stroke-opacity: 1.00; stroke-linecap: round; stroke-linejoin: round;" id="ezcGraphCircleSector_7"/><path d="M 250.00,231.00 L 162.73,160.00 A 112.50,112.50 0 0,1 282.81,123.39 z" style="fill: #cc0000; fill-opacity: 1.00; stroke: none; cursor: pointer;" id="ezcGraphCircleSector_8" onclick="top.location = 'https://bsd-hardware.info/?view=computers&amp;type=notebook&amp;f=device_unsupported&amp;v=0&amp;c=Italy'"/><path d="M 249.74,230.14 L 163.44,159.93 A 112.00,112.00 0 0,1 282.19,123.72 z" style="fill: none; stroke: #660000; stroke-width: 1; stroke-opacity: 1.00; stroke-linecap: round; stroke-linejoin: round;" id="ezcGraphCircleSector_9"/><path d="M 250.00,231.00 L 282.81,123.39 A 112.50,112.50 0 0,1 358.33,200.65 z" style="fill: #edd400; fill-opacity: 1.00; stroke: none; cursor: pointer;" id="ezcGraphCircleSector_10" onclick="top.location = 'https://bsd-hardware.info/?view=computers&amp;type=notebook&amp;f=device_unsupported&amp;v=3&amp;c=Italy'"/><path d="M 250.74,230.27 L 283.14,124.01 A 112.00,112.00 0 0,1 357.71,200.30 z" style="fill: none; stroke: #776a00; stroke-width: 1; stroke-opacity: 1.00; stroke-linecap: round; stroke-linejoin: round;" id="ezcGraphCircleSector_11"/><path d="M 250.00,231.00 L 358.33,200.65 A 112.50,112.50 0 0,1 362.50,231.00 z" style="fill: #75505b; fill-opacity: 1.00; stroke: none; cursor: pointer;" id="ezcGraphCircleSector_12" onclick="top.location = 'https://bsd-hardware.info/?view=computers&amp;type=notebook&amp;f=device_unsupported&amp;v=4&amp;c=Italy'"/><path d="M 253.64,230.50 L 357.98,201.26 A 112.00,112.00 0 0,1 362.00,230.50 z" style="fill: none; stroke: #3b282e; stroke-width: 1; stroke-opacity: 1.00; stroke-linecap: round; stroke-linejoin: round;" id="ezcGraphCircleSector_13"/><path d=" M 225.6962,151.2895 L 209.0000,111.0000" style="fill: none; stroke: #000000; stroke-width: 1; stroke-opacity: 1.00; stroke-linecap: round; stroke-linejoin: round;" id="ezcGraphLine_14"/><ellipse cx="225.6962" cy="151.2895" rx="3.0000" ry="3.0000" style="fill: #000000; fill-opacity: 1.00; stroke: none;" id="ezcGraphCircle_15"/><ellipse cx="209.0000" cy="111.0000" rx="3.0000" ry="3.0000" style="fill: #000000; fill-opacity: 1.00; stroke: none;" id="ezcGraphCircle_16"/><path d=" M 167.0119,238.5779 L 119.4849,242.0000" style="fill: none; stroke: #000000; stroke-width: 1; stroke-opacity: 1.00; stroke-linecap: round; stroke-linejoin: round;" id="ezcGraphLine_18"/><ellipse cx="167.0119" cy="238.5779" rx="3.0000" ry="3.0000" style="fill: #000000; fill-opacity: 1.00; stroke: none;" id="ezcGraphCircle_19"/><ellipse cx="119.4849" cy="242.0000" rx="3.0000" ry="3.0000" style="fill: #000000; fill-opacity: 1.00; stroke: none;" id="ezcGraphCircle_20"/><path d=" M 309.5925,172.7490 L 344.7750,143.0000" style="fill: none; stroke: #000000; stroke-width: 1; stroke-opacity: 1.00; stroke-linecap: round; stroke-linejoin: round;" id="ezcGraphLine_22"/><ellipse cx="309.5925" cy="172.7490" rx="3.0000" ry="3.0000" style="fill: #000000; fill-opacity: 1.00; stroke: none;" id="ezcGraphCircle_23"/><ellipse cx="344.7750" cy="143.0000" rx="3.0000" ry="3.0000" style="fill: #000000; fill-opacity: 1.00; stroke: none;" id="ezcGraphCircle_24"/><path d=" M 332.5572,219.6528 L 379.6972,213.0000" style="fill: none; stroke: #000000; stroke-width: 1; stroke-opacity: 1.00; stroke-linecap: round; stroke-linejoin: round;" id="ezcGraphLine_26"/><ellipse cx="332.5572" cy="219.6528" rx="3.0000" ry="3.0000" style="fill: #000000; fill-opacity: 1.00; stroke: none;" id="ezcGraphCircle_27"/><ellipse cx="379.6972" cy="213.0000" rx="3.0000" ry="3.0000" style="fill: #000000; fill-opacity: 1.00; stroke: none;" id="ezcGraphCircle_28"/><path d=" M 290.1711,318.0075 L 271.7797,355.0000" style="fill: none; stroke: #000000; stroke-width: 1; stroke-opacity: 1.00; stroke-linecap: round; stroke-linejoin: round;" id="ezcGraphLine_30"/><ellipse cx="290.1711" cy="318.0075" rx="3.0000" ry="3.0000" style="fill: #000000; fill-opacity: 1.00; stroke: none;" id="ezcGraphCircle_31"/><ellipse cx="271.7797" cy="355.0000" rx="3.0000" ry="3.0000" style="fill: #000000; fill-opacity: 1.00; stroke: none;" id="ezcGraphCircle_32"/><g id="ezcGraphTextBox_3"><path d=" M 48.1000,42.0000 L 48.1000,0.5000 L 452.4000,0.5000 L 452.4000,42.0000 L 48.1000,42.0000 z " style="fill: #ffffff; fill-opacity: 0.00; stroke: none;" id="ezcGraphPolygon_34"/><text id="ezcGraphTextBox_3_text" x="48.6000" text-length="402.8000px" y="35.0000" style="font-size: 40px; font-family: 'Arial'; fill: #2e3436; fill-opacity: 1.00; stroke: none;">Unsupported Devices</text></g><g id="ezcGraphTextBox_17" style=" cursor: pointer;" onclick="top.location = 'https://bsd-hardware.info/?view=computers&amp;type=notebook&amp;f=device_unsupported&amp;v=0&amp;c=Italy'"><path d=" M 93.7440,123.4000 L 93.7440,99.1000 L 204.0000,99.1000 L 204.0000,123.4000 L 93.7440,123.4000 z " style="fill: #ffffff; fill-opacity: 0.00; stroke: none;" id="ezcGraphPolygon_35"/><text id="ezcGraphTextBox_17_text" x="94.2440" text-length="108.7560px" y="118.9800" style="font-size: 22px; font-family: 'Arial'; fill: #2e3436; fill-opacity: 1.00; stroke: none;">0 (18.8%)</text></g><g id="ezcGraphTextBox_21" style=" cursor: pointer;" onclick="top.location = 'https://bsd-hardware.info/?view=computers&amp;type=notebook&amp;f=device_unsupported&amp;v=1&amp;c=Italy'"><path d=" M 4.2289,254.4000 L 4.2289,230.1000 L 114.4849,230.1000 L 114.4849,254.4000 L 4.2289,254.4000 z " style="fill: #ffffff; fill-opacity: 0.00; stroke: none;" id="ezcGraphPolygon_36"/><text id="ezcGraphTextBox_21_text" x="4.7289" text-length="108.7560px" y="249.9800" style="font-size: 22px; font-family: 'Arial'; fill: #2e3436; fill-opacity: 1.00; stroke: none;">1 (24.6%)</text></g><g id="ezcGraphTextBox_25" style=" cursor: pointer;" onclick="top.location = 'https://bsd-hardware.info/?view=computers&amp;type=notebook&amp;f=device_unsupported&amp;v=3&amp;c=Italy'"><path d=" M 350.2750,155.4000 L 350.2750,131.1000 L 460.5310,131.1000 L 460.5310,155.4000 L 350.2750,155.4000 z " style="fill: #ffffff; fill-opacity: 0.00; stroke: none;" id="ezcGraphPolygon_37"/><text id="ezcGraphTextBox_25_text" x="350.7750" text-length="108.7560px" y="150.9800" style="font-size: 22px; font-family: 'Arial'; fill: #2e3436; fill-opacity: 1.00; stroke: none;">3 (15.9%)</text></g><g id="ezcGraphTextBox_29" style=" cursor: pointer;" onclick="top.location = 'https://bsd-hardware.info/?view=computers&amp;type=notebook&amp;f=device_unsupported&amp;v=4&amp;c=Italy'"><path d=" M 385.1972,225.4000 L 385.1972,201.1000 L 483.3692,201.1000 L 483.3692,225.4000 L 385.1972,225.4000 z " style="fill: #ffffff; fill-opacity: 0.00; stroke: none;" id="ezcGraphPolygon_38"/><text id="ezcGraphTextBox_29_text" x="385.6972" text-length="96.6720px" y="220.9800" style="font-size: 22px; font-family: 'Arial'; fill: #2e3436; fill-opacity: 1.00; stroke: none;">4 (4.3%)</text></g><g id="ezcGraphTextBox_33" style=" cursor: pointer;" onclick="top.location = 'https://bsd-hardware.info/?view=computers&amp;type=notebook&amp;f=device_unsupported&amp;v=2&amp;c=Italy'"><path d=" M 277.2797,367.4000 L 277.2797,343.1000 L 387.5357,343.1000 L 387.5357,367.4000 L 277.2797,367.4000 z " style="fill: #ffffff; fill-opacity: 0.00; stroke: none;" id="ezcGraphPolygon_39"/><text id="ezcGraphTextBox_33_text" x="277.7797" text-length="108.7560px" y="362.9800" style="font-size: 22px; font-family: 'Arial'; fill: #2e3436; fill-opacity: 1.00; stroke: none;">2 (36.2%)</text></g></g></svg>
